# ProBuilder 4.5.2
# https://unity3d.com/unity/features/worldbuilding/probuilder
# 8/7/2021 6:22:17 PM

mtllib ./Right_Tread.mtl
o Right Tread

g Right Tread
v -1.085388 -0.8583642 -1.066074
v -0.3714105 -0.8583642 -1.066074
v -1.085388 -1.098663 -1.066074
v -0.3714105 -1.098663 -1.066074
v -0.3714105 -0.8583642 1.006072
v -1.085388 -0.8583642 1.006072
v -0.3714105 -1.098663 1.006072
v -1.085388 -1.098663 1.006072
v -1.085388 -1.196192 -0.9685457
v -0.3714105 -1.196192 -0.9685457
v -1.085388 -1.196192 0.9085436
v -0.3714105 -1.196192 0.9085436
v -1.085388 -0.7608358 0.9085436
v -0.3714105 -0.7608358 0.9085436
v -1.085388 -0.7608358 -0.9685457
v -0.3714105 -0.7608358 -0.9685457
v -1.056292 -1.148334 0.9854976
v -0.4005071 -1.148334 0.9854976
v -1.056292 -1.175617 0.9582146
v -0.4005071 -1.175617 0.9582146
v -0.4005071 -0.8086932 0.9854976
v -1.056292 -0.8086932 0.9854976
v -0.4005071 -0.7814102 0.9582146
v -1.056292 -0.7814102 0.9582146
v -0.4005071 -1.148334 -1.0455
v -1.056292 -1.148334 -1.0455
v -0.4005071 -1.175617 -1.018217
v -1.056292 -1.175617 -1.018217
v -1.056292 -0.8086932 -1.0455
v -0.4005071 -0.8086932 -1.0455
v -1.056292 -0.7814102 -1.018217
v -0.4005071 -0.7814102 -1.018217
v -0.8984692 -0.8764845 -0.7110569
v -0.8984692 -0.9281518 -0.7629969
v -0.8984692 -1.01291 -0.7617844
v -0.8984692 -1.069368 -0.7110569
v -0.8984692 -1.069368 0.6510552
v -0.8984692 -1.017701 0.7029951
v -0.8984692 -0.9329422 0.7017826
v -0.8984692 -0.8764845 0.6510552
v -0.6177123 -0.8392216 0.5842032
v -0.6177123 -0.9016299 0.6466117
v -0.6177123 -1.055397 0.6466117
v -0.6177123 -1.117806 0.5842032
v -0.6177123 -1.117806 -0.6169461
v -0.6177123 -1.055397 -0.6793545
v -0.6177123 -0.9016299 -0.6793545
v -0.6177123 -0.8392216 -0.6169461
v -1.033454 -1.109519 0.7640165
v -1.034015 -1.049248 0.8482513
v -1.033454 -0.8363338 0.7640165
v -1.033454 -0.8363338 -0.8240182
v -1.033454 -1.109519 -0.8240182
v -1.034015 -1.049248 -0.9082533
v -1.034015 -0.8966041 -0.9082533
v -1.034015 -0.8966041 0.8482513
v -0.9881547 -1.069368 -0.7993956
v -0.9881547 -1.069368 0.7393937
v -0.9881547 -0.8764845 0.7393937
v -0.9881547 -0.8764845 -0.7993956
v -0.9881547 -0.9281518 -0.8580725
v -0.9881547 -1.01291 -0.8567028
v -0.9881547 -1.017701 0.7980705
v -0.9881547 -0.9329422 0.7967008
v -0.4645692 -0.8065481 0.7250788
v -0.4645692 -0.8835955 0.8021263
v -0.4645692 -1.073432 0.8021263
v -0.4645692 -1.073432 -0.8348691
v -0.4645692 -0.8835955 -0.8348691
v -0.4645692 -0.8065481 -0.7578217
v -0.4645692 -1.150479 -0.7578217
v -0.4645692 -1.150479 0.7250788
v -0.5064446 -0.8392216 0.5842032
v -0.5064446 -0.9016299 0.6466117
v -0.5064446 -1.055397 0.6466117
v -0.5064446 -1.055397 -0.6793545
v -0.5064446 -0.9016299 -0.6793545
v -0.5064446 -0.8392216 -0.6169461
v -0.5064446 -1.117806 -0.6169461
v -0.5064446 -1.117806 0.5842032

vt 0.06838834 0.7826359
vt -0.6455895 0.7826359
vt 0.06838834 0.5423368
vt -0.6455895 0.5423368
vt 0.6455895 0.7826359
vt -0.06838834 0.7826359
vt 0.6455895 0.5423368
vt -0.06838834 0.5423368
vt -0.06838834 -1.301546
vt 0.6455895 -1.301546
vt -0.06838834 0.5755436
vt 0.6455895 0.5755436
vt 0.06838834 0.5755436
vt -0.6455895 0.5755436
vt 0.06838834 -1.301546
vt -0.6455895 -1.301546
vt 0.6164929 -0.3862173
vt -0.03929174 -0.3862173
vt 0.6164929 -0.3476332
vt -0.03929174 -0.3476332
vt -0.03929174 1.323114
vt 0.6164929 1.323114
vt -0.03929174 1.28453
vt 0.6164929 1.28453
vt 0.03929174 0.1271443
vt -0.6164929 0.1271443
vt 0.03929174 0.1657284
vt -0.6164929 0.1657284
vt -0.6164929 0.8097528
vt 0.03929174 0.8097528
vt -0.6164929 0.7711688
vt 0.03929174 0.7711688
vt -0.6433284 0.3793508
vt -0.09671864 0.3910839
vt 0.7984219 0.4393485
vt 1.393782 0.4882595
vt 1.36933 0.9456217
vt 0.8227212 0.9338887
vt -0.07242116 0.8856241
vt -0.6677802 0.8367131
vt 0.7227907 0.5375568
vt 0.6342889 0.844208
vt 0.2316211 1.483482
vt -0.006732196 1.695745
vt -1.448793 0.7874158
vt -1.360291 0.4807641
vt -0.9576228 -0.15851
vt -0.7192699 -0.3707725
vt -0.3569889 0.2854852
vt 0.3569889 0.2854852
vt -0.3278923 0.2317217
vt 0.3278923 0.2317217
vt 0.4862118 0.4097789
vt 0.4669198 0.3763642
vt 0.4801858 0.4706132
vt 0.4112227 0.3511658
vt 0.3569889 0.7838007
vt -0.3569889 0.7838007
vt 0.3278923 0.8375643
vt -0.3278923 0.8375643
vt -0.4669186 0.3763651
vt -0.4862106 0.4097798
vt -0.4112215 0.3511666
vt -0.4801845 0.4706141
vt 0.3569889 -0.2854852
vt -0.3569889 -0.2854852
vt 0.3278923 -0.2317217
vt -0.3278923 -0.2317217
vt -0.4862118 -0.4097789
vt -0.4669198 -0.3763642
vt -0.4801858 -0.4706132
vt -0.4112227 -0.3511658
vt 0.4669186 -0.3763651
vt 0.4862106 -0.4097798
vt 0.4112215 -0.3511666
vt 0.4801845 -0.4706141
vt -0.3569889 -0.7838007
vt 0.3569889 -0.7838007
vt -0.3278923 -0.8375643
vt 0.3278923 -0.8375643
vt 1.159096 0.6856706
vt 1.32113 0.7004421
vt 1.254763 0.8121888
vt 1.361637 0.8109018
vt 1.301546 0.5049822
vt -0.5755436 0.5049822
vt 1.157019 0.3779651
vt -0.4310162 0.3779651
vt -0.5755436 0.7041741
vt 1.301546 0.7041741
vt -0.4310162 0.8311912
vt 1.157019 0.8311912
vt -0.6053172 0.7163693
vt -0.4447468 0.7030308
vt -0.6473102 0.8271121
vt -0.541828 0.8295882
vt -0.4467222 0.5871443
vt -0.6207914 0.5678566
vt -0.535372 0.4642159
vt -0.6500852 0.4624928
vt -0.4952143 0.5423368
vt -0.4952143 0.7826359
vt -0.6611858 0.5805767
vt -0.6611858 0.7332209
vt 1.185563 0.7826359
vt 1.185563 0.5423368
vt 1.351534 0.7332209
vt 1.351534 0.5805767
vt 1.32369 0.6075628
vt 1.151666 0.6253627
vt 1.354752 0.5016297
vt 1.24192 0.502063
vt 0.2546522 -0.7693945
vt 0.2546522 0.7693948
vt 0.3151841 -0.7940172
vt 0.3151841 0.7940176
vt -0.2620648 0.7693948
vt -0.2620648 -0.7693945
vt -0.3225967 0.7940176
vt -0.3225967 -0.7940172
vt -0.8052402 0.03281026
vt -0.8579401 -0.02474788
vt -0.8472735 0.08262297
vt -0.923175 0.01214368
vt -0.7913337 0.05036187
vt -0.7903103 -0.03439635
vt -0.8593078 0.08190966
vt -0.8593078 -0.07073456
vt -0.8474448 0.07331618
vt -0.7975655 0.01076357
vt -0.9148941 0.03509456
vt -0.8413008 -0.03779164
vt 0.8052403 -0.02325345
vt 0.8579401 0.0343046
vt 0.8472738 -0.0730662
vt 0.923175 -0.002586875
vt 0.7913337 -0.03918684
vt 0.7903104 0.04557157
vt 0.8593079 -0.07073456
vt 0.8593079 0.08190966
vt 0.8474448 -0.0640754
vt 0.7975656 -0.001522904
vt 0.9148942 -0.02585388
vt 0.841301 0.04703222
vt -1.003888 0.1957071
vt -1.094237 0.09149289
vt -0.7988476 0.1468611
vt -0.8702235 0.06453191
vt -1.090735 0.1201496
vt -1.090735 -0.1201496
vt -0.8665202 0.09491825
vt -0.8665202 -0.09491813
vt 1.094414 -0.1201496
vt 1.094414 0.1201496
vt 0.8451467 -0.09491813
vt 0.8451467 0.09491825
vt 1.095699 0.1078127
vt 1.004032 0.2108697
vt 0.8465803 0.08115111
vt 0.7741634 0.1625661
vt 1.004032 -0.2108697
vt 1.095699 -0.1078127
vt 0.7741634 -0.1625661
vt 0.8465803 -0.08115102
vt -0.4163756 0.9385446
vt -0.4163756 -0.9385446
vt -0.3126058 0.7550799
vt -0.3126058 -0.7278206
vt 0.4163756 -0.9385446
vt 0.4163756 0.9385446
vt 0.3126058 -0.7278206
vt 0.3126058 0.7550799
vt -1.094237 -0.09149297
vt -1.003888 -0.1957072
vt -0.8702235 -0.06453187
vt -0.7988476 -0.1468612
vt -0.7958981 0.1855445
vt -0.8707961 0.1064061
vt -0.6491305 0.1519842
vt -0.7097979 0.08788215
vt -0.8721055 0.09491825
vt -0.8721055 -0.09491813
vt -0.7110517 0.07688379
vt -0.7110517 -0.07688367
vt 0.8457839 -0.09491813
vt 0.8457839 0.09491825
vt 0.6847301 -0.07688367
vt 0.6847301 0.07688379
vt 0.8442974 0.1078662
vt 0.7693993 0.1870046
vt 0.6832991 0.08934224
vt 0.6226317 0.1534443
vt 0.7693994 -0.1870046
vt 0.8442974 -0.107866
vt 0.6226317 -0.1534443
vt 0.6832991 -0.08934209
vt -0.3137908 0.7550799
vt -0.3137908 -0.7278206
vt -0.2606767 0.6142043
vt -0.2606767 -0.5869451
vt 0.3137908 -0.7278206
vt 0.3137908 0.7550799
vt 0.2606767 -0.5869451
vt 0.2606767 0.6142043
vt -0.8707962 -0.1064059
vt -0.7958981 -0.1855445
vt -0.7097979 -0.087882
vt -0.6491305 -0.1519842
vt -0.2219548 -0.3358141
vt -0.2219548 -0.4240729
vt -0.1106871 -0.3358141
vt -0.1106871 -0.4240729
vt -0.2219548 0.07688379
vt -0.2219548 -0.07688367
vt -0.1106871 0.07688379
vt -0.1106871 -0.07688367
vt 0.2219548 -0.07688367
vt 0.2219548 0.07688379
vt 0.1106871 -0.07688367
vt 0.1106871 0.07688379
vt 0.2219548 -0.4047977
vt 0.2219548 -0.3165389
vt 0.1106871 -0.4047977
vt 0.1106871 -0.3165389
vt 0.2219548 0.3165385
vt 0.2219548 0.4047973
vt 0.1106871 0.3165385
vt 0.1106871 0.4047973
vt -0.2219548 0.6142043
vt -0.2219548 -0.5869451
vt -0.1106871 0.6142043
vt -0.1106871 -0.5869451
vt 0.2219548 -0.5869451
vt 0.2219548 0.6142043
vt 0.1106871 -0.5869451
vt 0.1106871 0.6142043
vt -0.2219548 0.4240725
vt -0.2219548 0.3358136
vt -0.1106871 0.4240725
vt -0.1106871 0.3358136
vt 0.737918 0.1177009
vt 0.7806011 0.1830932
vt 0.6121174 0.1203258
vt 0.6498997 0.1830932
vt -0.2597553 0.7693948
vt -0.2597553 -0.7693945
vt -0.1700698 0.6810563
vt -0.1700698 -0.6810559
vt 0.2597553 -0.7693945
vt 0.2597553 0.7693948
vt 0.1700698 -0.6810559
vt 0.1700698 0.6810563
vt -0.7651862 0.1902903
vt -0.7249716 0.1207289
vt -0.6346833 0.1877631
vt -0.5990859 0.1207289
vt -0.7379181 -0.1085016
vt -0.7806012 -0.173894
vt -0.6121174 -0.1111265
vt -0.6498998 -0.173894
vt -0.7802876 0.05409165
vt -0.779292 -0.03067172
vt -0.6495863 0.05409059
vt -0.6487049 -0.03067172
vt 0.7802874 -0.04291715
vt 0.7792919 0.0418464
vt 0.6495861 -0.04291609
vt 0.6487049 0.0418464
vt 0.765186 -0.1808787
vt 0.7249715 -0.1113173
vt 0.6346832 -0.1783514
vt 0.5990859 -0.1113173

vn 0 0 -1
vn 0 0 1
vn 0 -1 0
vn 0 1 0
vn 0 -0.707106 0.7071075
vn 0 0.707106 0.7071075
vn 0 -0.707106 -0.7071075
vn 0 0.707106 -0.7071075
vn -1 0 0
vn 1 0 0
vn 0 -0.3826843 0.9238792
vn -0.5773485 -0.5773506 0.5773518
vn 0 -0.9238797 0.3826829
vn 0.577352 -0.5773487 0.57735
vn 0 0.3826843 0.9238792
vn 0.5773485 0.5773506 0.5773518
vn 0 0.9238797 0.3826829
vn -0.577352 0.5773487 0.57735
vn 0 -0.3826843 -0.9238792
vn 0.5773485 -0.5773506 -0.5773518
vn 0 -0.9238797 -0.3826829
vn -0.577352 -0.5773487 -0.57735
vn 0 0.3826843 -0.9238792
vn -0.5773485 0.5773506 -0.5773518
vn 0 0.9238797 -0.3826829
vn 0.577352 0.5773487 -0.57735
vn -0.9530655 0.2140867 -0.2140866
vn -0.9431342 0.2516802 -0.2136417
vn -0.933203 0.2892736 -0.2131968
vn -0.8238916 -0.5667474 0
vn -0.857796 0.5139903 0
vn -0.9436883 0.2339365 0.2339363
vn -0.9461414 0.2441519 0.2111298
vn -0.9485946 0.2543673 0.1883232
vn -0.9485481 -0.2238935 0.2238933
vn -0.9363716 -0.2657773 0.2250928
vn -0.9241951 -0.3076612 0.2262923
vn -0.9508903 0 0.3095281
vn -0.9508902 0 -0.3095283
vn -0.9376908 -0.2456991 -0.2456989
vn -0.9401484 -0.2571244 -0.2220651
vn -0.942606 -0.2685497 -0.1984312
vn -0.6633004 0.7483532 -2.898729E-08
vn -0.6632999 -0.7483538 0
vn -0.7155864 -0.5242516 0.4616238
vn -0.7418138 -0.5213168 0.4188231
vn -0.7680411 -0.518382 0.3760225
vn -0.7346813 0.01096189 0.6783239
vn -0.7409084 0.005480944 0.6714978
vn -0.7471356 0 0.6646717
vn -0.8042578 0.4233459 0.4170705
vn -0.761994 0.4928396 0.4121093
vn -0.7197302 0.5623334 0.4071481
vn -0.7155876 0.5242506 -0.4616228
vn -0.7418144 0.521316 -0.4188231
vn -0.7680411 0.5183814 -0.3760234
vn -0.7346813 -0.01096186 -0.6783238
vn -0.7409084 -0.005480932 -0.6714978
vn -0.7471356 0 -0.6646717
vn -0.8042573 -0.4233463 -0.4170709
vn -0.7619938 -0.4928396 -0.4121097
vn -0.7197303 -0.5623329 -0.4071486
vn 0.8669562 -0.3524111 -0.3524108
vn 0.9095986 0 -0.4154881
vn 0.9275376 0 0.3737298
vn 0.8894785 -0.3231317 0.3231315
vn 0.8894785 0.3231316 0.3231314
vn 0.4405171 0.8977442 0
vn 0.4405171 -0.8977442 0
vn 0.8669562 0.352411 -0.3524108
vn 0.9464163 -0.2283597 -0.2283593
vn 0.9656063 0 -0.2600087
vn 0.9656063 0 0.2600087
vn 0.9464163 -0.2283597 0.2283594
vn 0.9464164 0.2283594 0.2283594
vn 0.6151567 0.7884049 0
vn 0.6151567 -0.7884049 0
vn 0.9464164 0.2283594 -0.2283594
vn -0.5455362 0.6289954 -0.5538546
vn -0.5721598 0.5984067 -0.559346
vn -0.5987834 0.5678179 -0.5648374
vn -0.5962714 0.571876 0.5633988
vn -0.5936452 0.5555026 0.5817145
vn -0.591019 0.5391292 0.6000302
vn -0.5455368 -0.6289951 0.5538545
vn -0.5721604 -0.5984063 0.5593458
vn -0.5987839 -0.5678176 0.5648372
vn -0.7273813 0.01108827 0.686144
vn -0.7271025 0.01045618 0.6864489
vn -0.7268238 0.009824105 0.6867537
vn -0.7273808 -0.01108825 -0.6861444
vn -0.727102 -0.01045617 -0.6864493
vn -0.7268233 -0.009824091 -0.6867543
vn -0.5962709 -0.5718762 -0.5633991
vn -0.5936447 -0.5555028 -0.5817148
vn -0.5910186 -0.5391294 -0.6000305

usemtl Basic
f 38/38/9 39/39/9 40/40/9
f 33/33/9 34/34/9 35/35/9
f 35/35/9 36/36/9 33/33/9
f 36/36/9 37/37/9 33/33/9
f 37/37/9 40/40/9 33/33/9
f 38/38/9 40/40/9 37/37/9
f 44/44/10 41/41/10 43/43/10
f 48/48/10 41/41/10 44/44/10
f 48/48/10 44/44/10 45/45/10
f 48/48/10 45/45/10 46/46/10
f 46/46/10 47/47/10 48/48/10
f 41/41/10 42/42/10 43/43/10
f 2/2/1 4/4/1 3/3/1
f 3/3/1 1/1/1 2/2/1
f 6/6/2 8/8/2 7/7/2
f 7/7/2 5/5/2 6/6/2
f 10/10/3 12/12/3 11/11/3
f 11/11/3 9/9/3 10/10/3
f 14/14/4 16/16/4 15/15/4
f 15/15/4 13/13/4 14/14/4
f 19/19/5 20/20/5 18/18/5
f 18/18/5 17/17/5 19/19/5
f 23/23/6 24/24/6 22/22/6
f 22/22/6 21/21/6 23/23/6
f 27/27/7 28/28/7 26/26/7
f 26/26/7 25/25/7 27/27/7
f 31/31/8 32/32/8 30/30/8
f 30/30/8 29/29/8 31/31/8
f 17/51/11 18/52/11 7/50/11
f 7/50/11 8/49/11 17/51/11
f 8/55/12 11/56/12 19/54/12
f 19/54/12 17/53/12 8/55/12
f 20/59/13 19/60/13 11/58/13
f 11/58/13 12/57/13 20/59/13
f 12/63/14 7/64/14 18/62/14
f 18/62/14 20/61/14 12/63/14
f 21/67/15 22/68/15 6/66/15
f 6/66/15 5/65/15 21/67/15
f 5/71/16 14/72/16 23/70/16
f 23/70/16 21/69/16 5/71/16
f 24/59/17 23/60/17 14/58/17
f 14/58/17 13/57/17 24/59/17
f 13/75/18 6/76/18 22/74/18
f 22/74/18 24/73/18 13/75/18
f 25/51/19 26/52/19 3/50/19
f 3/50/19 4/49/19 25/51/19
f 4/55/20 10/56/20 27/54/20
f 27/54/20 25/53/20 4/55/20
f 28/79/21 27/80/21 10/78/21
f 10/78/21 9/77/21 28/79/21
f 9/63/22 3/64/22 26/62/22
f 26/62/22 28/61/22 9/63/22
f 29/67/23 30/68/23 2/66/23
f 2/66/23 1/65/23 29/67/23
f 1/71/24 15/72/24 31/70/24
f 31/70/24 29/69/24 1/71/24
f 32/79/25 31/80/25 15/78/25
f 15/78/25 16/77/25 32/79/25
f 16/75/26 2/76/26 30/74/26
f 30/74/26 32/73/26 16/75/26
f 8/82/28 50/84/29 49/83/28
f 49/83/28 11/81/27 8/82/28
f 15/86/30 52/88/30 51/87/30
f 51/87/30 13/85/30 15/86/30
f 11/90/31 49/92/31 53/91/31
f 53/91/31 9/89/31 11/90/31
f 9/94/33 53/96/34 54/95/33
f 54/95/33 3/93/32 9/94/33
f 1/98/36 55/100/37 52/99/36
f 52/99/36 15/97/35 1/98/36
f 3/102/38 54/104/38 55/103/38
f 55/103/38 1/101/38 3/102/38
f 6/106/39 56/108/39 50/107/39
f 50/107/39 8/105/39 6/106/39
f 13/110/41 51/112/42 56/111/41
f 56/111/41 6/109/40 13/110/41
f 53/115/43 49/116/43 58/114/43
f 58/114/43 57/113/43 53/115/43
f 51/119/44 52/120/44 60/118/44
f 60/118/44 59/117/44 51/119/44
f 52/123/46 55/124/47 61/122/46
f 61/122/46 60/121/45 52/123/46
f 55/127/49 54/128/50 62/126/49
f 62/126/49 61/125/48 55/127/49
f 54/131/52 53/132/53 57/130/52
f 57/130/52 62/129/51 54/131/52
f 49/135/55 50/136/56 63/134/55
f 63/134/55 58/133/54 49/135/55
f 50/139/58 56/140/59 64/138/58
f 64/138/58 63/137/57 50/139/58
f 56/143/61 51/144/62 59/142/61
f 59/142/61 64/141/60 56/143/61
f 5/146/63 66/148/63 65/147/63
f 65/147/63 14/145/63 5/146/63
f 7/150/64 67/152/64 66/151/64
f 66/151/64 5/149/64 7/150/64
f 2/154/65 69/156/65 68/155/65
f 68/155/65 4/153/65 2/154/65
f 16/158/66 70/160/66 69/159/66
f 69/159/66 2/157/66 16/158/66
f 4/162/67 68/164/67 71/163/67
f 71/163/67 10/161/67 4/162/67
f 10/166/68 71/168/68 72/167/68
f 72/167/68 12/165/68 10/166/68
f 14/170/69 65/172/69 70/171/69
f 70/171/69 16/169/69 14/170/69
f 12/174/70 72/176/70 67/175/70
f 67/175/70 7/173/70 12/174/70
f 66/178/71 74/180/71 73/179/71
f 73/179/71 65/177/71 66/178/71
f 67/182/72 75/184/72 74/183/72
f 74/183/72 66/181/72 67/182/72
f 69/186/73 77/188/73 76/187/73
f 76/187/73 68/185/73 69/186/73
f 70/190/74 78/192/74 77/191/74
f 77/191/74 69/189/74 70/190/74
f 68/194/75 76/196/75 79/195/75
f 79/195/75 71/193/75 68/194/75
f 71/198/76 79/200/76 80/199/76
f 80/199/76 72/197/76 71/198/76
f 65/202/77 73/204/77 78/203/77
f 78/203/77 70/201/77 65/202/77
f 72/206/78 80/208/78 75/207/78
f 75/207/78 67/205/78 72/206/78
f 74/210/7 42/212/7 41/211/7
f 41/211/7 73/209/7 74/210/7
f 75/214/1 43/216/1 42/215/1
f 42/215/1 74/213/1 75/214/1
f 77/218/2 47/220/2 46/219/2
f 46/219/2 76/217/2 77/218/2
f 78/222/5 48/224/5 47/223/5
f 47/223/5 77/221/5 78/222/5
f 76/226/6 46/228/6 45/227/6
f 45/227/6 79/225/6 76/226/6
f 79/230/4 45/232/4 44/231/4
f 44/231/4 80/229/4 79/230/4
f 73/234/3 41/236/3 48/235/3
f 48/235/3 78/233/3 73/234/3
f 80/238/8 44/240/8 43/239/8
f 43/239/8 75/237/8 80/238/8
f 63/242/80 38/244/81 37/243/80
f 37/243/80 58/241/79 63/242/80
f 60/246/3 33/248/3 40/247/3
f 40/247/3 59/245/3 60/246/3
f 58/250/4 37/252/4 36/251/4
f 36/251/4 57/249/4 58/250/4
f 57/254/83 36/256/84 35/255/83
f 35/255/83 62/253/82 57/254/83
f 61/258/86 34/260/87 33/259/86
f 33/259/86 60/257/85 61/258/86
f 62/262/89 35/264/90 34/263/89
f 34/263/89 61/261/88 62/262/89
f 64/266/92 39/268/93 38/267/92
f 38/267/92 63/265/91 64/266/92
f 59/270/95 40/272/96 39/271/95
f 39/271/95 64/269/94 59/270/95

