# File produced by Open Asset Import Library (http://www.assimp.sf.net)
# (assimp v3.1.128981410)

mtllib Right%20Tread%20Export.mtl

# vertex positions
v -0.898469 -1.017701 0.702995
v -0.898469 -0.932942 0.701783
v -0.898469 -0.876485 0.651055
v -0.898469 -0.876485 -0.711057
v -0.898469 -0.928152 -0.762997
v -0.898469 -1.012910 -0.761784
v -0.898469 -1.069368 -0.711057
v -0.898469 -1.069368 0.651055
v -0.617712 -1.117806 0.584203
v -0.617712 -0.839222 0.584203
v -0.617712 -1.055397 0.646612
v -0.617712 -0.839222 -0.616946
v -0.617712 -1.117806 -0.616946
v -0.617712 -1.055397 -0.679354
v -0.617712 -0.901630 -0.679354
v -0.617712 -0.901630 0.646612
v -0.371411 -0.858364 -1.066074
v -0.371411 -1.098663 -1.066074
v -1.085388 -1.098663 -1.066074
v -1.085388 -0.858364 -1.066074
v -1.085388 -0.858364 1.006072
v -1.085388 -1.098663 1.006072
v -0.371411 -1.098663 1.006072
v -0.371411 -0.858364 1.006072
v -0.371411 -1.196192 -0.968546
v -0.371411 -1.196192 0.908544
v -1.085388 -1.196192 0.908544
v -1.085388 -1.196192 -0.968546
v -0.371411 -0.760836 0.908544
v -0.371411 -0.760836 -0.968546
v -1.085388 -0.760836 -0.968546
v -1.085388 -0.760836 0.908544
v -1.056292 -1.175617 0.958215
v -0.400507 -1.175617 0.958215
v -0.400507 -1.148334 0.985498
v -1.056292 -1.148334 0.985498
v -0.400507 -0.781410 0.958215
v -1.056292 -0.781410 0.958215
v -1.056292 -0.808693 0.985498
v -0.400507 -0.808693 0.985498
v -0.400507 -1.175617 -1.018217
v -1.056292 -1.175617 -1.018217
v -1.056292 -1.148334 -1.045500
v -0.400507 -1.148334 -1.045500
v -1.056292 -0.781410 -1.018217
v -0.400507 -0.781410 -1.018217
v -0.400507 -0.808693 -1.045500
v -1.056292 -0.808693 -1.045500
v -1.034015 -1.049248 0.848251
v -1.033454 -1.109519 0.764017
v -1.033454 -0.836334 -0.824018
v -1.033454 -0.836334 0.764017
v -1.033454 -1.109519 -0.824018
v -1.034015 -1.049248 -0.908253
v -1.034015 -0.896604 -0.908253
v -1.034015 -0.896604 0.848251
v -0.988155 -1.069368 0.739394
v -0.988155 -1.069368 -0.799396
v -0.988155 -0.876485 -0.799396
v -0.988155 -0.876485 0.739394
v -0.988155 -0.928152 -0.858073
v -0.988155 -1.012910 -0.856703
v -0.988155 -1.017701 0.798070
v -0.988155 -0.932942 0.796701
v -0.464569 -0.883596 0.802126
v -0.464569 -0.806548 0.725079
v -0.464569 -1.073432 0.802126
v -0.464569 -0.883596 -0.834869
v -0.464569 -1.073432 -0.834869
v -0.464569 -0.806548 -0.757822
v -0.464569 -1.150479 -0.757822
v -0.464569 -1.150479 0.725079
v -0.506445 -0.901630 0.646612
v -0.506445 -0.839222 0.584203
v -0.506445 -1.055397 0.646612
v -0.506445 -0.901630 -0.679354
v -0.506445 -1.055397 -0.679354
v -0.506445 -0.839222 -0.616946
v -0.506445 -1.117806 -0.616946
v -0.506445 -1.117806 0.584203

# UV coordinates
vt 0.293922 0.355800
vt 0.308732 0.351787
vt 0.318979 0.360177
vt 0.430013 0.655748
vt 0.418910 0.671141
vt 0.393750 0.680063
vt 0.377050 0.674351
vt 0.289089 0.369357
vt 0.000000 0.016515
vt 0.344738 0.121901
vt 0.088053 0.056058
vt 0.802761 0.098765
vt 0.780405 0.000000
vt 0.812178 0.023608
vt 0.826663 0.099325
vt 0.245062 0.102355
vt 0.586952 0.800674
vt 0.281327 0.893022
vt 0.373964 0.765775
vt 0.480747 0.714958
vt 0.302850 0.273499
vt 0.252916 0.293505
vt 0.167164 0.164909
vt 0.332670 0.177601
vt 0.124067 0.844859
vt 0.093865 0.178218
vt 0.230457 0.311702
vt 0.328113 0.753189
vt 0.439145 0.195006
vt 0.691223 0.594866
vt 0.517213 0.684291
vt 0.331121 0.287013
vt 0.233306 0.298662
vt 0.124474 0.179488
vt 0.143881 0.175878
vt 0.239474 0.293713
vt 0.395568 0.192621
vt 0.325261 0.277165
vt 0.317269 0.273535
vt 0.367761 0.187991
vt 0.191468 0.859006
vt 0.335973 0.763973
vt 0.348860 0.767552
vt 0.233007 0.871901
vt 0.516569 0.698535
vt 0.646142 0.672621
vt 0.619661 0.725164
vt 0.508655 0.708873
vt 0.270249 0.324219
vt 0.256583 0.344903
vt 0.479694 0.664166
vt 0.331250 0.325107
vt 0.345813 0.714076
vt 0.383675 0.724802
vt 0.454546 0.693399
vt 0.306408 0.311280
vt 0.268613 0.350806
vt 0.360188 0.702918
vt 0.461631 0.665194
vt 0.324260 0.334692
vt 0.437348 0.688164
vt 0.395567 0.705974
vt 0.279722 0.335112
vt 0.302616 0.327081
vt 0.331240 0.149109
vt 0.466473 0.177625
vt 0.129342 0.126821
vt 0.623353 0.827525
vt 0.257057 0.939749
vt 0.757212 0.489889
vt 0.074071 0.853134
vt 0.059541 0.174839
vt 0.311544 0.128123
vt 0.484034 0.165865
vt 0.107271 0.098211
vt 0.611624 0.915416
vt 0.238541 0.971433
vt 0.745142 0.346338
vt 0.776271 0.316127
vt 0.035285 0.850430
vt 0.038702 0.171496
vt 0.481615 0.975945
vt 0.212197 0.999999
vt 0.000000 0.862660

# vertex normals
vn -1.000000 0.000000 0.000000
vn 1.000000 0.000000 0.000000
vn 0.000000 0.000000 -1.000000
vn 0.000000 0.000000 1.000000
vn 0.000000 -1.000000 0.000000
vn 0.000000 1.000000 0.000000
vn 0.000000 -0.707106 0.707108
vn 0.000000 0.707106 0.707108
vn 0.000000 -0.707106 -0.707108
vn 0.000000 0.707106 -0.707108
vn 0.000000 -0.382684 0.923879
vn -0.577348 -0.577351 0.577352
vn 0.000000 -0.923880 0.382683
vn 0.577352 -0.577349 0.577350
vn 0.000000 0.382684 0.923879
vn 0.577348 0.577351 0.577352
vn 0.000000 0.923880 0.382683
vn -0.577352 0.577349 0.577350
vn 0.000000 -0.382684 -0.923879
vn 0.577348 -0.577351 -0.577352
vn 0.000000 -0.923880 -0.382683
vn -0.577352 -0.577349 -0.577350
vn 0.000000 0.382684 -0.923879
vn -0.577348 0.577351 -0.577352
vn 0.000000 0.923880 -0.382683
vn 0.577352 0.577349 -0.577350
vn -0.943848 0.251871 -0.213803
vn -0.933203 0.289274 -0.213197
vn -0.953066 0.214087 -0.214087
vn -0.823892 -0.566747 0.000000
vn -0.857796 0.513990 0.000000
vn -0.946440 0.244229 0.211196
vn -0.948595 0.254367 0.188323
vn -0.943688 0.233936 0.233936
vn -0.937264 -0.266031 0.225307
vn -0.924195 -0.307661 0.226292
vn -0.948548 -0.223893 0.223893
vn -0.950890 0.000000 0.309528
vn -0.950890 0.000000 -0.309528
vn -0.940475 -0.257214 -0.222142
vn -0.942606 -0.268550 -0.198431
vn -0.937691 -0.245699 -0.245699
vn -0.663300 0.748353 -0.000000
vn -0.663300 -0.748354 0.000000
vn -0.742753 -0.521977 0.419354
vn -0.768041 -0.518382 0.376022
vn -0.715586 -0.524252 0.461624
vn -0.740951 0.005481 0.671537
vn -0.747136 0.000000 0.664672
vn -0.734681 0.010962 0.678324
vn -0.764537 0.494484 0.413484
vn -0.719730 0.562333 0.407148
vn -0.804258 0.423346 0.417070
vn -0.742754 0.521976 -0.419354
vn -0.768041 0.518381 -0.376023
vn -0.715588 0.524251 -0.461623
vn -0.740951 -0.005481 -0.671537
vn -0.747136 0.000000 -0.664672
vn -0.734681 -0.010962 -0.678324
vn -0.764536 -0.494484 -0.413485
vn -0.719730 -0.562333 -0.407149
vn -0.804257 -0.423346 -0.417071
vn 0.866956 -0.352411 -0.352411
vn 0.909599 0.000000 -0.415488
vn 0.927538 0.000000 0.373730
vn 0.889479 -0.323132 0.323132
vn 0.889479 0.323132 0.323131
vn 0.440517 0.897744 0.000000
vn 0.440517 -0.897744 0.000000
vn 0.866956 0.352411 -0.352411
vn 0.946416 -0.228360 -0.228359
vn 0.965606 0.000000 -0.260009
vn 0.965606 0.000000 0.260009
vn 0.946416 -0.228360 0.228359
vn 0.946416 0.228359 0.228359
vn 0.615157 0.788405 0.000000
vn 0.615157 -0.788405 0.000000
vn 0.946416 0.228359 -0.228359
vn -0.572639 0.598908 -0.559815
vn -0.598783 0.567818 -0.564837
vn -0.545536 0.628995 -0.553855
vn -0.593827 0.555672 0.581892
vn -0.591019 0.539129 0.600030
vn -0.596271 0.571876 0.563399
vn -0.572640 -0.598908 0.559815
vn -0.598784 -0.567818 0.564837
vn -0.545537 -0.628995 0.553854
vn -0.727103 0.010456 0.686449
vn -0.726824 0.009824 0.686754
vn -0.727381 0.011088 0.686144
vn -0.727102 -0.010456 -0.686450
vn -0.726823 -0.009824 -0.686754
vn -0.727381 -0.011088 -0.686144
vn -0.593826 -0.555672 -0.581892
vn -0.591019 -0.539129 -0.600030
vn -0.596271 -0.571876 -0.563399

# Mesh
g Right
usemtl Basic
f 1/1/1 2/2/1 3/3/1
f 4/4/1 5/5/1 6/6/1
f 6/6/1 7/7/1 4/4/1
f 7/7/1 8/8/1 4/4/1
f 8/8/1 3/3/1 4/4/1
f 1/1/1 3/3/1 8/8/1
f 9/9/2 10/10/2 11/11/2
f 12/12/2 10/10/2 9/9/2
f 12/12/2 9/9/2 13/13/2
f 12/12/2 13/13/2 14/14/2
f 14/14/2 15/15/2 12/12/2
f 10/10/2 16/16/2 11/11/2
f 17/17/3 18/18/3 19/19/3
f 19/19/3 20/20/3 17/17/3
f 21/21/4 22/22/4 23/23/4
f 23/23/4 24/24/4 21/21/4
f 25/25/5 26/26/5 27/27/5
f 27/27/5 28/28/5 25/25/5
f 29/29/6 30/30/6 31/31/6
f 31/31/6 32/32/6 29/29/6
f 33/33/7 34/34/7 35/35/7
f 35/35/7 36/36/7 33/33/7
f 37/37/8 38/38/8 39/39/8
f 39/39/8 40/40/8 37/37/8
f 41/41/9 42/42/9 43/43/9
f 43/43/9 44/44/9 41/41/9
f 45/45/10 46/46/10 47/47/10
f 47/47/10 48/48/10 45/45/10
f 36/36/11 35/35/11 23/23/11
f 23/23/11 22/22/11 36/36/11
f 22/22/12 27/27/12 33/33/12
f 33/33/12 36/36/12 22/22/12
f 34/34/13 33/33/13 27/27/13
f 27/27/13 26/26/13 34/34/13
f 26/26/14 23/23/14 35/35/14
f 35/35/14 34/34/14 26/26/14
f 40/40/15 39/39/15 21/21/15
f 21/21/15 24/24/15 40/40/15
f 24/24/16 29/29/16 37/37/16
f 37/37/16 40/40/16 24/24/16
f 38/38/17 37/37/17 29/29/17
f 29/29/17 32/32/17 38/38/17
f 32/32/18 21/21/18 39/39/18
f 39/39/18 38/38/18 32/32/18
f 44/44/19 43/43/19 19/19/19
f 19/19/19 18/18/19 44/44/19
f 18/18/20 25/25/20 41/41/20
f 41/41/20 44/44/20 18/18/20
f 42/42/21 41/41/21 25/25/21
f 25/25/21 28/28/21 42/42/21
f 28/28/22 19/19/22 43/43/22
f 43/43/22 42/42/22 28/28/22
f 48/48/23 47/47/23 17/17/23
f 17/17/23 20/20/23 48/48/23
f 20/20/24 31/31/24 45/45/24
f 45/45/24 48/48/24 20/20/24
f 46/46/25 45/45/25 31/31/25
f 31/31/25 30/30/25 46/46/25
f 30/30/26 17/17/26 47/47/26
f 47/47/26 46/46/26 30/30/26
f 22/22/27 49/49/28 50/50/27
f 50/50/27 27/27/29 22/22/27
f 31/31/30 51/51/30 52/52/30
f 52/52/30 32/32/30 31/31/30
f 27/27/31 50/50/31 53/53/31
f 53/53/31 28/28/31 27/27/31
f 28/28/32 53/53/33 54/54/32
f 54/54/32 19/19/34 28/28/32
f 20/20/35 55/55/36 51/51/35
f 51/51/35 31/31/37 20/20/35
f 19/19/38 54/54/38 55/55/38
f 55/55/38 20/20/38 19/19/38
f 21/21/39 56/56/39 49/49/39
f 49/49/39 22/22/39 21/21/39
f 32/32/40 52/52/41 56/56/40
f 56/56/40 21/21/42 32/32/40
f 53/53/43 50/50/43 57/57/43
f 57/57/43 58/58/43 53/53/43
f 52/52/44 51/51/44 59/59/44
f 59/59/44 60/60/44 52/52/44
f 51/51/45 55/55/46 61/61/45
f 61/61/45 59/59/47 51/51/45
f 55/55/48 54/54/49 62/62/48
f 62/62/48 61/61/50 55/55/48
f 54/54/51 53/53/52 58/58/51
f 58/58/51 62/62/53 54/54/51
f 50/50/54 49/49/55 63/63/54
f 63/63/54 57/57/56 50/50/54
f 49/49/57 56/56/58 64/64/57
f 64/64/57 63/63/59 49/49/57
f 56/56/60 52/52/61 60/60/60
f 60/60/60 64/64/62 56/56/60
f 24/24/63 65/65/63 66/66/63
f 66/66/63 29/29/63 24/24/63
f 23/23/64 67/67/64 65/65/64
f 65/65/64 24/24/64 23/23/64
f 17/17/65 68/68/65 69/69/65
f 69/69/65 18/18/65 17/17/65
f 30/30/66 70/70/66 68/68/66
f 68/68/66 17/17/66 30/30/66
f 18/18/67 69/69/67 71/71/67
f 71/71/67 25/25/67 18/18/67
f 25/25/68 71/71/68 72/72/68
f 72/72/68 26/26/68 25/25/68
f 29/29/69 66/66/69 70/70/69
f 70/70/69 30/30/69 29/29/69
f 26/26/70 72/72/70 67/67/70
f 67/67/70 23/23/70 26/26/70
f 65/65/71 73/73/71 74/74/71
f 74/74/71 66/66/71 65/65/71
f 67/67/72 75/75/72 73/73/72
f 73/73/72 65/65/72 67/67/72
f 68/68/73 76/76/73 77/77/73
f 77/77/73 69/69/73 68/68/73
f 70/70/74 78/78/74 76/79/74
f 76/76/74 68/68/74 70/70/74
f 69/69/75 77/77/75 79/80/75
f 79/80/75 71/71/75 69/69/75
f 71/71/76 79/80/76 80/81/76
f 80/81/76 72/72/76 71/71/76
f 66/66/77 74/74/77 78/78/77
f 78/78/77 70/70/77 66/66/77
f 72/72/78 80/81/78 75/75/78
f 75/75/78 67/67/78 72/72/78
f 73/73/9 16/16/9 10/10/9
f 10/10/9 74/74/9 73/73/9
f 75/75/3 11/11/3 16/16/3
f 16/16/3 73/73/3 75/75/3
f 76/76/4 15/82/4 14/83/4
f 14/83/4 77/77/4 76/76/4
f 78/78/7 12/12/7 15/15/7
f 15/15/7 76/79/7 78/78/7
f 77/77/8 14/83/8 13/84/8
f 13/84/8 79/80/8 77/77/8
f 79/80/6 13/84/6 9/9/6
f 9/9/6 80/81/6 79/80/6
f 74/74/5 10/10/5 12/12/5
f 12/12/5 78/78/5 74/74/5
f 80/81/10 9/9/10 11/11/10
f 11/11/10 75/75/10 80/81/10
f 63/63/79 1/1/80 8/8/79
f 8/8/79 57/57/81 63/63/79
f 59/59/5 4/4/5 3/3/5
f 3/3/5 60/60/5 59/59/5
f 57/57/6 8/8/6 7/7/6
f 7/7/6 58/58/6 57/57/6
f 58/58/82 7/7/83 6/6/82
f 6/6/82 62/62/84 58/58/82
f 61/61/85 5/5/86 4/4/85
f 4/4/85 59/59/87 61/61/85
f 62/62/88 6/6/89 5/5/88
f 5/5/88 61/61/90 62/62/88
f 64/64/91 2/2/92 1/1/91
f 1/1/91 63/63/93 64/64/91
f 60/60/94 3/3/95 2/2/94
f 2/2/94 64/64/96 60/60/94
