# ProBuilder 4.5.2
# https://unity3d.com/unity/features/worldbuilding/probuilder
# 7/18/2021 6:43:30 PM

mtllib ./Icosphere.mtl
o Icosphere

g Icosphere
v 0 4.950788 0
v 0.9455162 2.475394 1.529878
v -1.529878 4.005271 2.475394
v -3.059755 4.950788 0
v -1.529878 4.005271 -2.475394
v 0.9455162 2.475394 -1.529878
v -4.005271 2.475394 1.529878
v -1.529878 0.9455162 2.475394
v 0 0 0
v -1.529878 0.9455162 -2.475394
v -4.005271 2.475394 -1.529878
v -3.059755 0 0

vt -4.681676 1.025441
vt -6.309763 -1.565202
vt -7.739283 1.140085
vt -2.907429 -3.880954
vt -5.96335 -3.727838
vt -4.302788 -1.157891
vt 1.392462 6.583797
vt 4.089 5.137842
vt 1.488497 3.525549
vt -7.250199 -4.943233
vt -4.235815 -4.418271
vt -5.288377 -7.291286
vt -8.493288 -1.446782
vt -6.735418 -3.951176
vt -9.783221 -4.22134
vt 3.891315 0.4104714
vt 5.919111 2.70179
vt 6.889554 -0.1999927
vt -0.3538105 -1.01063
vt 0.759184 -3.860778
vt -2.265615 -3.399585
vt -3.563056 2.14087
vt -1.569624 -0.1804066
vt -4.576625 -0.7461319
vt -4.347261 -7.004425
vt -3.368122 -4.105565
vt -1.347205 -6.402954
vt 5.709199 3.684602
vt 8.23616 5.409875
vt 8.46681 2.358826
vt 7.102542 -1.115848
vt 9.064364 1.232205
vt 10.11693 -1.64081
vt -3.249509 4.010169
vt -3.153475 7.068415
vt -0.5529709 5.456124
vt 9.044763 -5.557822
vt 7.649404 -8.280886
vt 5.98884 -5.710937
vt 7.434611 -4.112253
vt 4.377005 -4.226896
vt 5.806524 -1.52161
vt 9.258924 -5.287961
vt 7.968989 -2.513403
vt 11.01679 -2.783567
vt 3.375672 -7.891611
vt 2.396533 -4.992751
vt 5.396589 -5.594222
vt -4.447465 1.742842
vt -6.974427 3.468114
vt -4.216815 4.793891
vt -0.1131191 1.010059
vt -2.140915 3.301379
vt 0.8573232 3.911843
vt 3.076942 1.136405
vt 1.963947 -1.713744
vt 0.05214393 0.6752119
vt 7.965766 6.944731
vt 5.972334 4.623454
vt 4.958765 7.510457

vn 0.5773503 0.5773503 0.5773503
vn 0 0.9341724 0.356822
vn 0 0.9341724 -0.356822
vn 0.5773503 0.5773503 -0.5773503
vn 0.9341724 0.3568221 0
vn -0.5773503 0.5773503 0.5773503
vn 0.3568221 0 0.9341724
vn 0.9341724 -0.3568221 0
vn 0.3568221 0 -0.9341724
vn -0.5773503 0.5773503 -0.5773503
vn -0.5773503 -0.5773503 0.5773503
vn 0 -0.9341724 0.3568221
vn 0 -0.9341724 -0.3568221
vn -0.5773503 -0.5773503 -0.5773503
vn -0.9341724 -0.3568221 0
vn -0.3568221 0 0.9341724
vn 0.5773503 -0.5773503 0.5773503
vn 0.5773503 -0.5773503 -0.5773503
vn -0.3568221 0 -0.9341724
vn -0.9341724 0.3568221 0

usemtl Chunk_Base
f 3/3/1 2/2/1 1/1/1
f 4/6/2 3/5/2 1/4/2
f 5/9/3 4/8/3 1/7/3
f 6/12/4 5/11/4 1/10/4
f 2/15/5 6/14/5 1/13/5
f 7/18/6 3/17/6 4/16/6
f 8/21/7 2/20/7 3/19/7
f 9/24/8 6/23/8 2/22/8
f 10/27/9 5/26/9 6/25/9
f 11/30/10 4/29/10 5/28/10
f 8/33/11 7/32/11 12/31/11
f 9/36/12 8/35/12 12/34/12
f 10/39/13 9/38/13 12/37/13
f 11/42/14 10/41/14 12/40/14
f 7/45/15 11/44/15 12/43/15
f 3/48/16 7/47/16 8/46/16
f 2/51/17 8/50/17 9/49/17
f 6/54/18 9/53/18 10/52/18
f 5/57/19 10/56/19 11/55/19
f 4/60/20 11/59/20 7/58/20

