# ProBuilder 4.5.2
# https://unity3d.com/unity/features/worldbuilding/probuilder
# 10/28/2021 9:19:27 AM

mtllib ./Pipe.mtl
o Pipe

g Pipe
v -2.205 -0.08500004 3.819172
v -4.41 -0.08500004 0
v -2.205 0.08499996 3.819172
v -4.41 0.08499996 0
v -3.22 -0.08500004 0
v -1.61 -0.08500004 2.788602
v -3.22 0.08499996 0
v -1.61 0.08499996 2.788602
v 2.205 -0.08500004 3.819172
v 2.205 0.08499996 3.819172
v 1.61 -0.08500004 2.788602
v 1.61 0.08499996 2.788602
v 4.41 -0.08500004 -3.855344E-07
v 4.41 0.08499996 -3.855344E-07
v 3.22 -0.08500004 -2.815013E-07
v 3.22 0.08499996 -2.815013E-07
v 2.204999 -0.08500004 -3.819172
v 2.204999 0.08499996 -3.819172
v 1.61 -0.08500004 -2.788602
v 1.61 0.08499996 -2.788602
v -2.204999 -0.08500004 -3.819172
v -2.204999 0.08499996 -3.819172
v -1.61 -0.08500004 -2.788602
v -1.61 0.08499996 -2.788602

vt 2.205 -0.08500004
vt -2.205 -0.08500004
vt 2.205 0.08499996
vt -2.205 0.08499996
vt 1.61 -0.08500004
vt -1.61 -0.08500004
vt 1.61 0.08499996
vt -1.61 0.08499996
vt 1.61 -0.08500004
vt -1.61 -0.08500004
vt 1.61 0.08499996
vt -1.61 0.08499996
vt 2.205 -0.08500004
vt -2.205 -0.08500004
vt 2.205 0.08499996
vt -2.205 0.08499996
vt -4.41 0
vt -2.205 3.819172
vt -3.22 0
vt -1.61 2.788602
vt 2.205 3.819172
vt 4.41 0
vt 1.61 2.788602
vt 3.22 0
vt 1.61 2.788602
vt -1.61 2.788602
vt 2.204999 -3.819172
vt 1.61 -2.788602
vt -2.204999 -3.819172
vt -1.61 -2.788602

vn -0.8660253 0 0.5
vn 0.8660254 0 -0.5000001
vn 5.406317E-08 0 1
vn -7.404304E-08 0 -1
vn 0.8660254 0 0.5
vn -0.8660254 0 -0.4999999
vn -0.8660254 0 -0.5000001
vn 0.8660254 0 0.5000001
vn 0 -1 0
vn 0 1 0

usemtl ProBuilderDefault
f 3/3/1 4/4/1 2/2/1 1/1/1
f 7/7/2 8/8/2 6/6/2 5/5/2
f 10/3/3 3/4/3 1/2/3 9/1/3
f 8/11/4 12/12/4 11/10/4 6/9/4
f 14/15/5 10/16/5 9/14/5 13/13/5
f 12/7/6 16/12/6 15/10/6 11/5/6
f 18/15/2 14/16/2 13/14/2 17/13/2
f 16/11/1 20/8/1 19/6/1 15/9/1
f 22/3/4 18/4/4 17/2/4 21/1/4
f 20/11/3 24/12/3 23/10/3 19/9/3
f 4/15/7 22/16/7 21/14/7 2/13/7
f 24/7/8 7/8/8 5/6/8 23/5/8
f 5/19/9 6/20/9 1/18/9 2/17/9
f 8/23/10 7/24/10 4/22/10 3/21/10
f 6/20/9 11/25/9 9/21/9 1/18/9
f 12/26/10 8/23/10 3/21/10 10/18/10
f 11/25/9 15/24/9 13/22/9 9/21/9
f 16/19/10 12/26/10 10/18/10 14/17/10
f 15/24/9 19/28/9 17/27/9 13/22/9
f 20/30/10 16/19/10 14/17/10 18/29/10
f 19/28/9 23/30/9 21/29/9 17/27/9
f 24/28/10 20/30/10 18/29/10 22/27/10
f 23/30/9 5/19/9 2/17/9 21/29/9
f 7/24/10 24/28/10 22/27/10 4/22/10

