# ProBuilder 5.0.6
# https://unity3d.com/unity/features/worldbuilding/probuilder
# 12/4/2022 7:15:40 PM

mtllib ./Pieces_Cluster_001.mtl
o Pieces Cluster 001

g Pieces Cluster 001
v -119.6 1.75 -267.9497
v -239.6 1.75 -267.9497
v -119.6 21.75 -267.9497
v -239.6 21.75 -267.9497
v -239.6 1.75 -387.9497
v -239.6 21.75 -387.9497
v -119.6 1.75 -387.9497
v -119.6 21.75 -387.9497
v -316 0.3600006 -112.85
v -336 0.3600006 -112.85
v -316 8.360001 -112.85
v -336 8.360001 -112.85
v -336 0.3600006 -132.85
v -336 8.360001 -132.85
v -316 0.3600006 -132.85
v -316 8.360001 -132.85
v -238.25 0.4599991 -90.2
v -258.25 0.4599991 -90.2
v -238.25 3.459999 -90.2
v -258.25 3.459999 -90.2
v -258.25 0.4599991 -100.2
v -258.25 3.459999 -100.2
v -238.25 0.4599991 -100.2
v -238.25 3.459999 -100.2
v -234.1501 -0.650013 -253.9501
v -234.1503 -0.6500053 -173.95
v -214.1501 -0.6500053 -253.95
v -214.1503 -0.6500053 -173.95
v -234.1503 29.35 -173.95
v -214.1503 29.35 -173.95
v -234.1501 29.34999 -253.9501
v -214.1501 29.35 -253.95
v -203.15 0.3500023 -245.4499
v -203.1501 0.3500061 -185.4499
v -183.15 0.3500061 -245.4499
v -183.1501 0.3500061 -185.4499
v -203.1501 60.35001 -185.4499
v -183.1501 60.35001 -185.4499
v -203.15 60.35001 -245.4499
v -183.15 60.35001 -245.4499
v -343 0.4599991 -111.45
v -403 0.4599991 -111.45
v -343 3.459999 -111.45
v -403 3.459999 -111.45
v -403 0.4599991 -151.45
v -403 3.459999 -151.45
v -343 0.4599991 -151.45
v -343 3.459999 -151.45
v -266.75 0.3600006 -112.85
v -306.75 0.3600006 -112.85
v -266.75 8.360001 -112.85
v -306.75 8.360001 -112.85
v -306.75 0.3600006 -132.85
v -306.75 8.360001 -132.85
v -266.75 0.3600006 -132.85
v -266.75 8.360001 -132.85
v -238.25 0.3600006 -117.85
v -258.25 0.3600006 -117.85
v -238.25 8.360001 -117.85
v -258.25 8.360001 -117.85
v -258.25 0.3600006 -127.85
v -258.25 8.360001 -127.85
v -238.25 0.3600006 -127.85
v -238.25 8.360001 -127.85
v -189 0.4599991 -90.2
v -229 0.4599991 -90.2
v -189 3.459999 -90.2
v -229 3.459999 -90.2
v -229 0.4599991 -100.2
v -229 3.459999 -100.2
v -189 0.4599991 -100.2
v -189 3.459999 -100.2
v -245.5 0.7000008 -226.15
v -285.5 0.7000008 -226.15
v -245.5 50.7 -226.15
v -285.5 50.7 -226.15
v -285.5 0.7000008 -266.15
v -285.5 50.7 -266.15
v -245.5 0.7000008 -266.15
v -245.5 50.7 -266.15
v -238.25 0.6000023 -144
v -258.25 0.6000023 -144
v -238.25 15.6 -144
v -258.25 15.6 -144
v -258.25 0.6000023 -154
v -258.25 15.6 -154
v -238.25 0.6000023 -154
v -238.25 15.6 -154
v -245.6 0.4999962 -282.9499
v -335.6 0.4999962 -282.9499
v -245.6 20.5 -282.9499
v -335.6 20.5 -282.9499
v -335.6 0.4999962 -372.9499
v -335.6 20.5 -372.9499
v -245.6 0.4999962 -372.9499
v -245.6 20.5 -372.9499
v -295.5 0.2000008 -225.65
v -335.5 0.2000008 -225.65
v -295.5 35.2 -225.65
v -335.5 35.2 -225.65
v -335.5 0.2000008 -265.65
v -335.5 35.2 -265.65
v -295.5 0.2000008 -265.65
v -295.5 35.2 -265.65
v -189 0.6000023 -144
v -229 0.6000023 -144
v -189 15.6 -144
v -229 15.6 -144
v -229 0.6000023 -154
v -229 15.6 -154
v -189 0.6000023 -154
v -189 15.6 -154
v -316 0.6000023 -139
v -336 0.6000023 -139
v -316 15.6 -139
v -336 15.6 -139
v -336 0.6000023 -159
v -336 15.6 -159
v -316 0.6000023 -159
v -316 15.6 -159
v -316 0.4599991 -85.2
v -336 0.4599991 -85.2
v -316 3.459999 -85.2
v -336 3.459999 -85.2
v -336 0.4599991 -105.2
v -336 3.459999 -105.2
v -316 0.4599991 -105.2
v -316 3.459999 -105.2
v -343 0.4599991 -85.2
v -403 0.4599991 -85.2
v -343 3.459999 -85.2
v -403 3.459999 -85.2
v -403 0.4599991 -105.2
v -403 3.459999 -105.2
v -343 0.4599991 -105.2
v -343 3.459999 -105.2
v -343.25 0.5 -225.7
v -433.25 0.5 -225.7
v -343.25 3.5 -225.7
v -433.25 3.5 -225.7
v -433.25 0.5 -315.7
v -433.25 3.5 -315.7
v -343.25 0.5 -315.7
v -343.25 3.5 -315.7
v -295.5 0.7000008 -173.9
v -335.5 0.7000008 -173.9
v -295.5 8.700001 -173.9
v -335.5 8.700001 -173.9
v -335.5 0.7000008 -213.9
v -335.5 8.700001 -213.9
v -295.5 0.7000008 -213.9
v -295.5 8.700001 -213.9
v -245.5 0.2000008 -174.4
v -285.5 0.2000008 -174.4
v -245.5 16.2 -174.4
v -285.5 16.2 -174.4
v -285.5 0.2000008 -214.4
v -285.5 16.2 -214.4
v -245.5 0.2000008 -214.4
v -245.5 16.2 -214.4
v -343 0.4599991 -158.3
v -403 0.4599991 -158.3
v -343 3.459999 -158.3
v -403 3.459999 -158.3
v -403 0.4599991 -218.3
v -403 3.459999 -218.3
v -343 0.4599991 -218.3
v -343 3.459999 -218.3
v -189 0.3600006 -117.85
v -229 0.3600006 -117.85
v -189 8.360001 -117.85
v -229 8.360001 -117.85
v -229 0.3600006 -127.85
v -229 8.360001 -127.85
v -189 0.3600006 -127.85
v -189 8.360001 -127.85
v -266.75 0.4599991 -85.2
v -306.75 0.4599991 -85.2
v -266.75 3.459999 -85.2
v -306.75 3.459999 -85.2
v -306.75 0.4599991 -105.2
v -306.75 3.459999 -105.2
v -266.75 0.4599991 -105.2
v -266.75 3.459999 -105.2
v -266.75 0.6000023 -139
v -306.75 0.6000023 -139
v -266.75 15.6 -139
v -306.75 15.6 -139
v -306.75 0.6000023 -159
v -306.75 15.6 -159
v -266.75 0.6000023 -159
v -266.75 15.6 -159

vt 60 -10
vt -60 -10
vt 60 10
vt -60 10
vt -60 60
vt 60 60
vt -60 -60
vt 60 -60
vt 10 -4
vt -10 -4
vt 10 4
vt -10 4
vt -10 10
vt 10 10
vt -10 -10
vt 10 -10
vt 10 -1.5
vt -10 -1.5
vt 10 1.5
vt -10 1.5
vt 5 -1.5
vt -5 -1.5
vt 5 1.5
vt -5 1.5
vt -10 5
vt 10 5
vt -10 -5
vt 10 -5
vt 40 -9.999969
vt -39.99998 -10
vt 39.99999 10
vt -40 9.999969
vt 15 -10
vt -15 -10
vt 15 10
vt -15 10
vt 40 -10
vt -40 -9.999992
vt 40.00002 9.999992
vt -40 10
vt -15 -9.999999
vt 15 9.999999
vt -14.99999 10
vt -40 15.00001
vt 40 15
vt -40 -15
vt 40 -15.00001
vt 40 15
vt -40 15
vt 30 -10
vt -30.00001 -10
vt 30.00001 10
vt -29.99999 10
vt -30 10
vt 29.99999 10
vt -30 30.00001
vt 30 30
vt -30 -30
vt 30 -30
vt -30 -30
vt 30 30
vt 30 -1.5
vt -30 -1.5
vt 30 1.5
vt -30 1.5
vt 20 -1.5
vt -20 -1.5
vt 20 1.5
vt -20 1.5
vt -30 20
vt 30 20
vt -30 -20
vt 30 -20
vt 20 -4
vt -20 -4
vt 20 4
vt -20 4
vt -20 10
vt 20 10
vt -20 -10
vt 20 -10
vt 5 -4
vt -5 -4
vt 5 4
vt -5 4
vt -20 5
vt 20 5
vt -20 -5
vt 20 -5
vt 20 -25
vt -20 -25
vt 20 25
vt -20 25
vt -20 20
vt 20 20
vt -20 -20
vt 20 -20
vt 10 -7.5
vt -10 -7.5
vt 10 7.5
vt -10 7.5
vt 5 -7.5
vt -5 -7.5
vt 5 7.5
vt -5 7.5
vt 44.99999 -10
vt -44.99999 -10
vt 44.99999 10
vt -44.99999 10
vt 45 -10
vt -45 -10
vt 45 10
vt -45 10
vt -44.99999 45
vt 44.99999 45
vt -44.99999 -45
vt 44.99999 -45
vt 20 -17.5
vt -20 -17.5
vt 20 17.5
vt -20 17.5
vt 20 -7.5
vt -20 -7.5
vt 20 7.5
vt -20 7.5
vt 45 -1.5
vt -45 -1.5
vt 45 1.5
vt -45 1.5
vt -45 45
vt 45 45
vt -45 -45
vt 45 -45
vt 20 -8
vt -20 -8
vt 20 8
vt -20 8

vn 0 0 1
vn -1 0 0
vn 0 0 -1
vn 1 0 0
vn 0 1 0
vn 0 -1 0

usemtl Lit
f 3/3/1 4/4/1 2/2/1 1/1/1
f 4/3/2 6/4/2 5/2/2 2/1/2
f 6/3/3 8/4/3 7/2/3 5/1/3
f 8/3/4 3/4/4 1/2/4 7/1/4
f 8/7/5 6/8/5 4/6/5 3/5/5
f 1/6/6 2/5/6 5/7/6 7/8/6
f 11/11/1 12/12/1 10/10/1 9/9/1
f 12/11/2 14/12/2 13/10/2 10/9/2
f 14/11/3 16/12/3 15/10/3 13/9/3
f 16/11/4 11/12/4 9/10/4 15/9/4
f 16/15/5 14/16/5 12/14/5 11/13/5
f 9/14/6 10/13/6 13/15/6 15/16/6
f 19/19/1 20/20/1 18/18/1 17/17/1
f 20/23/2 22/24/2 21/22/2 18/21/2
f 22/19/3 24/20/3 23/18/3 21/17/3
f 24/23/4 19/24/4 17/22/4 23/21/4
f 24/27/5 22/28/5 20/26/5 19/25/5
f 17/26/6 18/25/6 21/27/6 23/28/6
f 27/31/6 28/32/6 26/30/6 25/29/6
f 28/35/1 30/36/1 29/34/1 26/33/1
f 30/39/5 32/40/5 31/38/5 29/37/5
f 32/42/3 27/43/3 25/41/3 31/33/3
f 32/46/4 30/47/4 28/45/4 27/44/4
f 25/48/2 26/49/2 29/46/2 31/47/2
f 35/52/6 36/53/6 34/51/6 33/50/6
f 36/52/1 38/54/1 37/51/1 34/50/1
f 38/55/5 40/54/5 39/51/5 37/50/5
f 40/52/3 35/53/3 33/51/3 39/50/3
f 40/58/4 38/59/4 36/57/4 35/56/4
f 33/61/2 34/56/2 37/60/2 39/59/2
f 43/64/1 44/65/1 42/63/1 41/62/1
f 44/68/2 46/69/2 45/67/2 42/66/2
f 46/64/3 48/65/3 47/63/3 45/62/3
f 48/68/4 43/69/4 41/67/4 47/66/4
f 48/72/5 46/73/5 44/71/5 43/70/5
f 41/71/6 42/70/6 45/72/6 47/73/6
f 51/76/1 52/77/1 50/75/1 49/74/1
f 52/11/2 54/12/2 53/10/2 50/9/2
f 54/76/3 56/77/3 55/75/3 53/74/3
f 56/11/4 51/12/4 49/10/4 55/9/4
f 56/80/5 54/81/5 52/79/5 51/78/5
f 49/79/6 50/78/6 53/80/6 55/81/6
f 59/11/1 60/12/1 58/10/1 57/9/1
f 60/84/2 62/85/2 61/83/2 58/82/2
f 62/11/3 64/12/3 63/10/3 61/9/3
f 64/84/4 59/85/4 57/83/4 63/82/4
f 64/27/5 62/28/5 60/26/5 59/25/5
f 57/26/6 58/25/6 61/27/6 63/28/6
f 67/68/1 68/69/1 66/67/1 65/66/1
f 68/23/2 70/24/2 69/22/2 66/21/2
f 70/68/3 72/69/3 71/67/3 69/66/3
f 72/23/4 67/24/4 65/22/4 71/21/4
f 72/88/5 70/89/5 68/87/5 67/86/5
f 65/87/6 66/86/6 69/88/6 71/89/6
f 75/92/1 76/93/1 74/91/1 73/90/1
f 76/92/2 78/93/2 77/91/2 74/90/2
f 78/92/3 80/93/3 79/91/3 77/90/3
f 80/92/4 75/93/4 73/91/4 79/90/4
f 80/96/5 78/97/5 76/95/5 75/94/5
f 73/95/6 74/94/6 77/96/6 79/97/6
f 83/100/1 84/101/1 82/99/1 81/98/1
f 84/104/2 86/105/2 85/103/2 82/102/2
f 86/100/3 88/101/3 87/99/3 85/98/3
f 88/104/4 83/105/4 81/103/4 87/102/4
f 88/27/5 86/28/5 84/26/5 83/25/5
f 81/26/6 82/25/6 85/27/6 87/28/6
f 91/108/1 92/109/1 90/107/1 89/106/1
f 92/112/2 94/113/2 93/111/2 90/110/2
f 94/108/3 96/109/3 95/107/3 93/106/3
f 96/112/4 91/113/4 89/111/4 95/110/4
f 96/116/5 94/117/5 92/115/5 91/114/5
f 89/115/6 90/114/6 93/116/6 95/117/6
f 99/120/1 100/121/1 98/119/1 97/118/1
f 100/120/2 102/121/2 101/119/2 98/118/2
f 102/120/3 104/121/3 103/119/3 101/118/3
f 104/120/4 99/121/4 97/119/4 103/118/4
f 104/96/5 102/97/5 100/95/5 99/94/5
f 97/95/6 98/94/6 101/96/6 103/97/6
f 107/124/1 108/125/1 106/123/1 105/122/1
f 108/104/2 110/105/2 109/103/2 106/102/2
f 110/124/3 112/125/3 111/123/3 109/122/3
f 112/104/4 107/105/4 105/103/4 111/102/4
f 112/88/5 110/89/5 108/87/5 107/86/5
f 105/87/6 106/86/6 109/88/6 111/89/6
f 115/100/1 116/101/1 114/99/1 113/98/1
f 116/100/2 118/101/2 117/99/2 114/98/2
f 118/100/3 120/101/3 119/99/3 117/98/3
f 120/100/4 115/101/4 113/99/4 119/98/4
f 120/15/5 118/16/5 116/14/5 115/13/5
f 113/14/6 114/13/6 117/15/6 119/16/6
f 123/19/1 124/20/1 122/18/1 121/17/1
f 124/19/2 126/20/2 125/18/2 122/17/2
f 126/19/3 128/20/3 127/18/3 125/17/3
f 128/19/4 123/20/4 121/18/4 127/17/4
f 128/15/5 126/16/5 124/14/5 123/13/5
f 121/14/6 122/13/6 125/15/6 127/16/6
f 131/64/1 132/65/1 130/63/1 129/62/1
f 132/19/2 134/20/2 133/18/2 130/17/2
f 134/64/3 136/65/3 135/63/3 133/62/3
f 136/19/4 131/20/4 129/18/4 135/17/4
f 136/51/5 134/50/5 132/52/5 131/54/5
f 129/52/6 130/54/6 133/51/6 135/50/6
f 139/128/1 140/129/1 138/127/1 137/126/1
f 140/128/2 142/129/2 141/127/2 138/126/2
f 142/128/3 144/129/3 143/127/3 141/126/3
f 144/128/4 139/129/4 137/127/4 143/126/4
f 144/132/5 142/133/5 140/131/5 139/130/5
f 137/131/6 138/130/6 141/132/6 143/133/6
f 147/76/1 148/77/1 146/75/1 145/74/1
f 148/76/2 150/77/2 149/75/2 146/74/2
f 150/76/3 152/77/3 151/75/3 149/74/3
f 152/76/4 147/77/4 145/75/4 151/74/4
f 152/96/5 150/97/5 148/95/5 147/94/5
f 145/95/6 146/94/6 149/96/6 151/97/6
f 155/136/1 156/137/1 154/135/1 153/134/1
f 156/136/2 158/137/2 157/135/2 154/134/2
f 158/136/3 160/137/3 159/135/3 157/134/3
f 160/136/4 155/137/4 153/135/4 159/134/4
f 160/96/5 158/97/5 156/95/5 155/94/5
f 153/95/6 154/94/6 157/96/6 159/97/6
f 163/64/1 164/65/1 162/63/1 161/62/1
f 164/64/2 166/65/2 165/63/2 162/62/2
f 166/64/3 168/65/3 167/63/3 165/62/3
f 168/64/4 163/65/4 161/63/4 167/62/4
f 168/60/5 166/59/5 164/61/5 163/56/5
f 161/61/6 162/56/6 165/60/6 167/59/6
f 171/76/1 172/77/1 170/75/1 169/74/1
f 172/84/2 174/85/2 173/83/2 170/82/2
f 174/76/3 176/77/3 175/75/3 173/74/3
f 176/84/4 171/85/4 169/83/4 175/82/4
f 176/88/5 174/89/5 172/87/5 171/86/5
f 169/87/6 170/86/6 173/88/6 175/89/6
f 179/68/1 180/69/1 178/67/1 177/66/1
f 180/19/2 182/20/2 181/18/2 178/17/2
f 182/68/3 184/69/3 183/67/3 181/66/3
f 184/19/4 179/20/4 177/18/4 183/17/4
f 184/80/5 182/81/5 180/79/5 179/78/5
f 177/79/6 178/78/6 181/80/6 183/81/6
f 187/124/1 188/125/1 186/123/1 185/122/1
f 188/100/2 190/101/2 189/99/2 186/98/2
f 190/124/3 192/125/3 191/123/3 189/122/3
f 192/100/4 187/101/4 185/99/4 191/98/4
f 192/80/5 190/81/5 188/79/5 187/78/5
f 185/79/6 186/78/6 189/80/6 191/81/6

