# File produced by Open Asset Import Library (http://www.assimp.sf.net)
# (assimp v3.1.128981410)

mtllib Torso%20Exported.mtl

# vertex positions
v -0.346594 1.056231 0.346594
v -0.551120 1.004953 0.311030
v -0.347064 1.055480 0.347059
v -0.346594 1.056231 -0.346594
v -0.551196 1.004823 -0.311449
v -0.347224 1.055224 -0.347224
v 0.551204 1.004795 -0.311449
v 0.347224 1.055224 -0.347224
v 0.346594 1.056231 -0.346594
v 0.346594 1.056231 0.346594
v 0.551279 1.004664 0.311870
v 0.347384 1.054968 0.347392
v -0.311449 1.004809 -0.378764
v 0.311449 1.004809 -0.378764
v -0.311386 1.004939 0.378420
v 0.311512 1.004678 0.379110
v 0.572356 0.651645 0.364114
v 0.363366 0.651644 0.435344
v 0.340178 0.391175 0.410990
v 0.316990 0.130707 0.386636
v 0.337929 -0.390231 0.270614
v 0.293802 -0.129762 0.362283
v 0.270614 -0.390231 0.337929
v -0.293802 -0.129767 0.361962
v -0.337929 -0.390231 0.270614
v -0.270614 -0.390231 0.337929
v -0.316989 0.130697 0.385994
v -0.572354 0.651623 0.362582
v -0.340177 0.391161 0.410027
v -0.363365 0.651625 0.434060
v -0.322044 0.965731 0.390019
v -0.332702 0.926522 0.401619
v -0.343360 0.887314 0.413218
v -0.619036 0.848109 0.353352
v -0.354019 0.848105 0.424817
v 0.619080 0.848074 0.354692
v 0.343423 0.887228 0.414228
v 0.354060 0.848078 0.425934
v 0.332786 0.926378 0.402522
v 0.322149 0.965528 0.390816
v 0.135307 -0.390231 0.337929
v 0.337929 -0.390231 -0.270614
v 0.270614 -0.390231 -0.337929
v -0.270614 -0.390231 -0.337929
v 0.000000 -0.390231 0.337929
v -0.337929 -0.390231 -0.270614
v -0.135307 -0.390231 0.337929
v 0.346594 1.056284 0.371834
v 0.311512 1.004732 0.404350
v 0.347383 1.055021 0.372632
v 0.155788 1.004797 0.404177
v 0.000063 1.004862 0.404005
v -0.346594 1.056284 0.371834
v -0.155661 1.004927 0.403832
v -0.311386 1.004992 0.403660
v -0.347064 1.055533 0.372299
v -0.361028 0.700745 0.431749
v -0.358692 0.749865 0.429439
v -0.356355 0.798985 0.427128
v 0.361040 0.700753 0.432992
v 0.358713 0.749861 0.430639
v 0.356387 0.798970 0.428287
v -0.572356 0.651634 -0.363384
v 0.363366 0.651635 -0.434738
v -0.363366 0.651635 -0.434738
v 0.572356 0.651635 -0.363384
v -0.619061 0.848091 -0.354059
v 0.619056 0.848092 -0.354057
v 0.354040 0.848092 -0.425412
v -0.354040 0.848092 -0.425412
v 0.146901 -0.129773 0.387868
v 0.293802 -0.129772 0.387949
v 0.316990 0.130697 0.412302
v 0.158495 0.130695 0.412142
v 0.135307 -0.390240 0.363595
v 0.270614 -0.390240 0.363595
v 0.146901 -0.129764 0.362202
v 0.000000 -0.129765 0.362122
v 0.158495 0.130704 0.386476
v 0.000000 0.130702 0.386315
v -0.146901 -0.129766 0.362042
v -0.158495 0.130699 0.386155
v -0.293802 -0.129776 0.387628
v -0.270614 -0.390240 0.363595
v -0.135307 -0.390240 0.363595
v -0.146901 -0.129775 0.387708
v -0.316990 0.130688 0.411660
v -0.158495 0.130690 0.411821
v -0.181682 0.651630 0.434381
v -0.170088 0.391165 0.410268
v 0.000001 0.391168 0.410509
v 0.000001 0.651635 0.434702
v -0.340177 0.391152 0.435693
v -0.170088 0.391155 0.435934
v -0.181682 0.651627 0.460047
v -0.363365 0.651622 0.459726
v 0.170089 0.391162 0.436415
v 0.340178 0.391166 0.436656
v 0.363366 0.651642 0.461010
v 0.181683 0.651637 0.460689
v 0.170089 0.391172 0.410749
v 0.181683 0.651639 0.435023
v 0.171727 0.887278 0.439638
v 0.177040 0.848102 0.451321
v 0.354060 0.848095 0.451600
v 0.343423 0.887257 0.439891
v 0.000031 0.887271 0.413723
v 0.000021 0.848092 0.425376
v 0.177041 0.848085 0.425655
v 0.171727 0.887249 0.413976
v 0.000042 0.926450 0.402070
v 0.166414 0.926414 0.402296
v 0.166414 0.926443 0.427958
v 0.332786 0.926407 0.428184
v -0.343361 0.887342 0.438880
v -0.171665 0.887321 0.439133
v -0.166330 0.926515 0.427507
v -0.332702 0.926551 0.427281
v -0.166330 0.926486 0.401844
v -0.171665 0.887292 0.413471
v -0.176999 0.848099 0.425097
v -0.354019 0.848122 0.450483
v -0.176999 0.848115 0.450762
v -0.322044 0.965759 0.415681
v -0.160996 0.965708 0.415881
v -0.155661 1.004902 0.404255
v -0.311386 1.004967 0.404082
v 0.000053 0.965629 0.390418
v 0.000063 1.004809 0.378765
v -0.155661 1.004874 0.378592
v -0.160996 0.965680 0.390218
v 0.161101 0.965608 0.416279
v 0.322149 0.965557 0.416478
v 0.161101 0.965579 0.390617
v 0.155788 1.004744 0.378938
v 0.155788 1.004772 0.404600
v 0.311512 1.004707 0.404772
v 0.180523 0.700755 0.458347
v 0.361040 0.700757 0.458658
v 0.180523 0.700751 0.432681
v 0.000006 0.700749 0.432370
v 0.000011 0.749863 0.430039
v 0.179362 0.749862 0.430339
v 0.179362 0.749867 0.456005
v 0.358713 0.749866 0.456305
v -0.180511 0.700747 0.432060
v -0.179340 0.749864 0.429739
v -0.180511 0.700751 0.457726
v -0.361028 0.700750 0.457415
v -0.179341 0.749869 0.455405
v -0.358692 0.749870 0.455105
v -0.178170 0.798981 0.427418
v 0.000016 0.798977 0.427707
v -0.178170 0.798986 0.453084
v -0.356355 0.798990 0.452794
v 0.178201 0.798978 0.453663
v 0.356387 0.798974 0.453953
v 0.178201 0.798973 0.427997

# UV coordinates
vt 0.324825 0.482114
vt 0.321196 0.536952
vt 0.324034 0.482894
vt 0.474684 0.541108
vt 0.463048 0.578701
vt 0.474973 0.541314
vt 0.542510 0.382213
vt 0.532717 0.420116
vt 0.532447 0.420161
vt 0.393563 0.325045
vt 0.438530 0.286174
vt 0.394085 0.322569
vt 0.491556 0.543132
vt 0.544805 0.430131
vt 0.305706 0.474466
vt 0.378335 0.312771
vt 0.482416 0.195033
vt 0.393724 0.213488
vt 0.438341 0.147402
vt 0.538664 0.104139
vt 0.801946 0.129279
vt 0.641531 0.094567
vt 0.815068 0.108662
vt 0.208860 0.752110
vt 0.464043 0.929544
vt 0.186619 0.805590
vt 0.196156 0.683511
vt 0.271645 0.620940
vt 0.197240 0.580098
vt 0.236541 0.533244
vt 0.296586 0.480939
vt 0.287340 0.486283
vt 0.278158 0.492205
vt 0.298164 0.575096
vt 0.270384 0.499092
vt 0.458216 0.243527
vt 0.379186 0.277161
vt 0.381038 0.265970
vt 0.379124 0.289324
vt 0.379091 0.300945
vt 0.992286 0.251694
vt 0.850870 0.290578
vt 0.843360 0.346527
vt 0.823974 0.658452
vt 0.999999 0.531577
vt 0.807786 0.714558
vt 0.884471 0.795964
vt 0.652885 0.886459
vt 0.388182 0.324142
vt 0.379198 0.318815
vt 0.388626 0.323891
vt 0.354111 0.355607
vt 0.337778 0.392382
vt 0.320187 0.477631
vt 0.322109 0.428509
vt 0.311402 0.469505
vt 0.320019 0.477657
vt 0.243754 0.523702
vt 0.251056 0.514548
vt 0.260612 0.506166
vt 0.387503 0.226408
vt 0.382873 0.238595
vt 0.381651 0.252743
vt 0.512377 0.658671
vt 0.634483 0.419497
vt 0.562269 0.601400
vt 0.614402 0.359606
vt 0.479674 0.614830
vt 0.575689 0.371386
vt 0.585523 0.425624
vt 0.524005 0.576031
vt 0.463930 0.040513
vt 0.618916 0.082200
vt 0.507166 0.098622
vt 0.358697 0.111661
vt 0.785926 0.052379
vt 0.798386 0.098125
vt 0.240364 0.000000
vt 0.681083 0.000000
vt 0.420368 0.039487
vt 0.205569 0.132215
vt 0.330176 0.123711
vt 0.200271 0.226344
vt 0.068077 0.378063
vt 0.117043 0.406123
vt 0.014407 0.330335
vt 0.158213 0.713783
vt 0.121259 0.753573
vt 0.000000 0.407179
vt 0.063735 0.430634
vt 0.176545 0.656590
vt 0.115262 0.440288
vt 0.223405 0.418892
vt 0.171843 0.415876
vt 0.216104 0.296455
vt 0.258988 0.337964
vt 0.188469 0.559888
vt 0.170523 0.435192
vt 0.221117 0.432668
vt 0.232857 0.521522
vt 0.314555 0.192820
vt 0.417088 0.150741
vt 0.379094 0.218775
vt 0.314496 0.261296
vt 0.298206 0.205390
vt 0.303728 0.270793
vt 0.331910 0.315331
vt 0.328030 0.305915
vt 0.373148 0.269772
vt 0.372519 0.280419
vt 0.301996 0.373085
vt 0.293311 0.367807
vt 0.323405 0.315892
vt 0.328317 0.325337
vt 0.311161 0.378440
vt 0.333898 0.334513
vt 0.336466 0.324469
vt 0.372650 0.290743
vt 0.275906 0.485199
vt 0.276253 0.430353
vt 0.286524 0.429655
vt 0.284193 0.480103
vt 0.291147 0.422831
vt 0.280322 0.422757
vt 0.269657 0.423411
vt 0.267961 0.491324
vt 0.266205 0.431528
vt 0.292595 0.475731
vt 0.296893 0.429592
vt 0.307154 0.430955
vt 0.300938 0.472591
vt 0.320898 0.383853
vt 0.331254 0.389089
vt 0.314376 0.426713
vt 0.302372 0.423803
vt 0.341569 0.333317
vt 0.373328 0.300800
vt 0.340392 0.343467
vt 0.349379 0.350477
vt 0.347031 0.342018
vt 0.374305 0.310793
vt 0.315061 0.273775
vt 0.375506 0.232667
vt 0.306584 0.284529
vt 0.266149 0.347705
vt 0.274722 0.354552
vt 0.311702 0.295234
vt 0.318319 0.284861
vt 0.373473 0.245805
vt 0.234274 0.420721
vt 0.245885 0.421394
vt 0.231835 0.431925
vt 0.240929 0.512231
vt 0.242949 0.431515
vt 0.249439 0.503843
vt 0.257702 0.422189
vt 0.283723 0.361308
vt 0.254448 0.431363
vt 0.258569 0.497008
vt 0.322787 0.295506
vt 0.372679 0.258250
vt 0.317218 0.305832
vt 0.663918 0.892649
vt 0.880692 0.808134

# vertex normals
vn -0.287517 0.871960 0.396258
vn -0.277443 0.924517 0.261330
vn -0.283372 0.626934 0.725709
vn -0.276954 0.924872 -0.260593
vn -0.287113 0.872663 -0.395001
vn -0.282504 0.629552 -0.723778
vn 0.277422 0.924771 -0.260453
vn 0.282577 0.629571 -0.723734
vn 0.287208 0.872681 -0.394892
vn 0.276938 0.925118 0.259735
vn 0.286811 0.873366 0.393664
vn 0.281710 0.632130 0.721838
vn -0.000003 0.530371 -0.847765
vn -0.250686 0.376441 0.891879
vn 0.249450 0.383032 0.889416
vn -0.250049 0.379764 -0.890649
vn 0.250086 0.379738 -0.890649
vn 0.361515 -0.137345 0.922195
vn 0.320414 -0.116423 0.940096
vn 0.496674 -0.143493 0.855993
vn 0.621634 -0.146397 0.769506
vn 0.701290 -0.128002 0.701290
vn -0.701367 -0.127153 0.701367
vn -0.621899 -0.145433 0.769475
vn -0.497257 -0.142438 0.855831
vn -0.362445 -0.136237 0.921994
vn -0.321452 -0.115338 0.939875
vn -0.252573 0.340624 0.905639
vn -0.254730 0.337353 0.906259
vn -0.248694 0.341172 0.906506
vn -0.245672 0.343075 0.906612
vn -0.245248 0.335727 0.909473
vn 0.244744 0.345607 0.905901
vn 0.247825 0.343667 0.905801
vn 0.244315 0.338125 0.908835
vn 0.251778 0.343105 0.904924
vn 0.253976 0.339773 0.905566
vn 0.000000 -1.000000 0.000000
vn -0.000536 0.532970 0.846134
vn -0.000714 0.533833 0.845590
vn -0.000479 0.530365 0.847770
vn -0.000545 0.527749 0.849400
vn -0.000722 0.526874 0.849943
vn -0.311857 0.032022 0.949589
vn -0.323034 0.059794 0.944497
vn -0.290861 0.031331 0.956252
vn -0.269724 0.030625 0.962450
vn -0.259930 0.057705 0.963902
vn 0.322016 0.060513 0.944798
vn 0.310886 0.032862 0.949879
vn 0.289971 0.032182 0.956494
vn 0.268918 0.031487 0.962648
vn 0.259158 0.058458 0.964064
vn -0.975608 -0.219519 0.000000
vn 0.000000 -0.092521 -0.995711
vn 0.975608 -0.219518 0.000000
vn 0.000000 1.000000 0.000000
vn -0.917671 0.397342 0.000023
vn 0.917676 0.397330 -0.000021
vn 0.000000 0.285286 -0.958442
vn 0.523612 -0.145033 -0.839521
vn 0.701327 -0.127602 -0.701327
vn 0.319201 -0.155069 -0.934914
vn -0.519358 -0.170872 -0.837299
vn -0.690291 -0.216785 -0.690291
vn -0.320931 -0.115913 -0.939983
vn -0.248878 0.344984 -0.905012
vn -0.243418 0.351195 -0.904107
vn -0.254321 0.338749 -0.905853
vn 0.248798 0.345709 -0.904757
vn 0.252801 0.354265 -0.900327
vn 0.244768 0.337116 -0.909088
vn 0.000000 0.047418 -0.998875
vn 0.972856 -0.231411 0.000003
vn 0.291701 0.013132 -0.956419
vn 0.322946 -0.031861 -0.945881
vn 0.259549 0.058083 -0.963982
vn -0.291604 0.022121 -0.956283
vn -0.322525 0.060155 -0.944648
vn -0.259944 -0.015970 -0.965492
vn -0.972885 -0.231291 -0.000001
vn -0.000775 -0.092885 0.995677
vn -0.001007 -0.093005 0.995665
vn -0.000272 -0.092918 0.995674
vn -0.000543 -0.093046 0.995662
vn 0.000000 -0.092486 0.995714
vn -0.000543 -0.092486 0.995714
vn -0.001007 -0.092745 0.995689
vn -0.001007 -0.092227 0.995738
vn -0.000543 -0.091926 0.995766
vn -0.001007 -0.091967 0.995761
vn -0.001582 -0.092373 0.995723
vn -0.001757 -0.092938 0.995670
vn -0.001437 0.285851 0.958273
vn -0.001500 0.286097 0.958199
vn -0.001375 0.285079 0.958503
vn -0.001438 0.285334 0.958427
vn -0.001501 0.285588 0.958351
vn -0.001374 0.286130 0.958190
vn -0.001308 0.284285 0.958739
vn -0.001241 0.284538 0.958664
vn -0.001501 0.284571 0.958654
vn -0.001501 0.284062 0.958805
vn -0.001097 0.283962 0.958835
vn -0.000944 0.284502 0.958675
vn -0.000943 0.285080 0.958503
vn -0.000943 0.285658 0.958331
vn -0.001766 0.047763 0.998857
vn -0.001719 0.047417 0.998874
vn 0.990871 -0.134815 0.000153
vn 0.000419 0.999999 -0.001106
vn 0.000000 -1.000000 -0.000360
vn -0.965004 0.262235 -0.000294
vn -0.964996 0.262266 -0.000177
vn 0.999716 -0.023829 0.000021
vn -0.998871 0.047513 -0.000015
vn 0.999011 0.044467 0.000010
vn -0.996061 -0.088670 -0.000036
vn 0.996061 -0.088671 -0.000029
vn -0.999011 0.044467 0.000013
vn 0.998880 0.047321 -0.000002
vn -0.999721 -0.023628 -0.000009
vn 0.965037 0.262114 -0.000287
vn -0.990926 -0.134409 0.000082
vn 0.814475 -0.580197 0.001220
vn 0.848349 0.529436 -0.001112
vn -0.000420 -0.999998 0.002102
vn 0.000000 0.999998 -0.002102
vn -0.817306 -0.576202 0.001210
vn -0.847816 0.530289 -0.001116

# Mesh
g Main
usemtl Basic
f 1/1/1 2/2/2 3/3/3
f 1/1/1 4/4/4 2/2/2
f 4/4/4 5/5/5 2/2/2
f 4/4/4 6/6/6 5/5/5
f 7/7/7 8/8/8 9/9/9
f 7/7/7 9/9/9 10/10/10
f 11/11/11 7/7/7 10/10/10
f 12/12/12 11/11/11 10/10/10
f 13/13/13 6/6/13 4/4/13
f 14/14/13 13/13/13 4/4/13
f 14/14/13 4/4/13 9/9/13
f 8/8/13 14/14/13 9/9/13
f 3/3/14 2/2/14 15/15/14
f 16/16/15 11/11/15 12/12/15
f 6/6/16 13/13/16 5/5/16
f 7/7/17 14/14/17 8/8/17
f 17/17/18 18/18/19 19/19/19
f 17/17/18 19/19/19 20/20/20
f 21/21/21 17/17/18 20/20/20
f 20/20/20 22/22/22 21/21/21
f 22/22/22 23/23/22 21/21/21
f 24/24/23 25/25/24 26/26/23
f 27/27/25 25/25/24 24/24/23
f 25/25/24 27/27/25 28/28/26
f 27/27/25 29/29/27 28/28/26
f 30/30/27 28/28/26 29/29/27
f 2/2/28 31/31/29 15/15/29
f 2/2/28 32/32/29 31/31/29
f 2/2/28 33/33/30 32/32/29
f 33/33/30 34/34/31 35/35/32
f 33/33/30 2/2/28 34/34/31
f 36/36/33 37/37/34 38/38/35
f 11/11/36 37/37/34 36/36/33
f 39/39/37 37/37/34 11/11/36
f 40/40/37 39/39/37 11/11/36
f 16/16/37 40/40/37 11/11/36
f 21/21/38 23/23/38 41/41/38
f 21/21/38 41/41/38 42/42/38
f 42/42/38 41/41/38 43/43/38
f 43/43/38 41/41/38 44/44/38
f 44/44/38 41/41/38 45/45/38
f 46/46/38 44/44/38 45/45/38
f 45/45/38 47/47/38 46/46/38
f 46/46/38 47/47/38 25/25/38
f 25/25/38 47/47/38 26/48/38
f 48/49/39 49/50/40 50/51/40
f 51/52/40 49/50/40 48/49/39
f 52/53/41 51/52/40 48/49/39
f 52/53/41 48/49/39 53/54/42
f 53/54/42 54/55/43 52/53/41
f 53/54/42 55/56/43 54/55/43
f 53/54/42 56/57/43 55/56/43
f 28/28/44 30/30/45 57/58/45
f 58/59/46 28/28/44 57/58/45
f 34/34/47 28/28/44 58/59/46
f 34/34/47 58/59/46 59/60/48
f 35/35/48 34/34/47 59/60/48
f 60/61/49 18/18/49 17/17/50
f 61/62/51 60/61/49 17/17/50
f 17/17/50 36/36/52 61/62/51
f 61/62/51 36/36/52 62/63/53
f 36/36/52 38/38/53 62/63/53
f 63/64/54 46/46/54 25/25/54
f 25/25/54 28/28/54 63/64/54
f 64/65/55 43/43/55 44/44/55
f 44/44/55 65/66/55 64/65/55
f 17/17/56 21/21/56 42/42/56
f 42/42/56 66/67/56 17/17/56
f 4/4/57 1/1/57 10/10/57
f 10/10/57 9/9/57 4/4/57
f 5/5/58 67/68/58 34/34/58
f 34/34/58 2/2/58 5/5/58
f 11/11/59 36/36/59 68/69/59
f 68/69/59 7/7/59 11/11/59
f 14/14/60 69/70/60 70/71/60
f 70/71/60 13/13/60 14/14/60
f 42/42/61 43/43/62 64/65/61
f 64/65/61 66/67/63 42/42/61
f 44/44/64 46/46/65 63/64/64
f 63/64/64 65/66/66 44/44/64
f 70/71/67 67/68/68 5/5/67
f 5/5/67 13/13/69 70/71/67
f 14/14/70 7/7/71 68/69/70
f 68/69/70 69/70/72 14/14/70
f 69/70/73 64/65/73 65/66/73
f 65/66/73 70/71/73 69/70/73
f 36/36/74 17/17/74 66/67/74
f 66/67/74 68/69/74 36/36/74
f 68/69/75 66/67/76 64/65/75
f 64/65/75 69/70/77 68/69/75
f 70/71/78 65/66/79 63/64/78
f 63/64/78 67/68/80 70/71/78
f 67/68/81 63/64/81 28/28/81
f 28/28/81 34/34/81 67/68/81
f 71/72/82 72/73/82 73/74/83
f 73/74/83 74/75/82 71/72/82
f 75/76/84 76/77/84 72/73/85
f 72/73/85 71/72/84 75/76/84
f 45/78/86 41/79/84 77/80/82
f 77/80/82 78/81/84 45/78/86
f 78/81/87 77/80/82 79/82/88
f 79/82/88 80/83/82 78/81/87
f 81/84/87 78/81/87 80/83/87
f 80/83/87 82/85/89 81/84/87
f 47/86/86 45/78/86 78/81/86
f 78/81/86 81/84/87 47/86/86
f 83/87/90 84/88/86 85/89/86
f 85/89/86 86/90/86 83/87/90
f 87/91/91 83/87/87 86/90/87
f 86/90/87 88/92/87 87/91/91
f 89/93/92 90/94/92 91/95/89
f 91/95/89 92/96/92 89/93/92
f 82/85/89 80/83/89 91/95/89
f 91/95/89 90/94/89 82/85/89
f 93/97/89 87/91/89 88/92/89
f 88/92/89 94/98/89 93/97/89
f 93/97/92 94/98/89 95/99/92
f 95/99/92 96/100/92 93/97/92
f 97/101/88 98/102/93 99/103/93
f 99/103/93 100/104/93 97/101/88
f 74/75/88 73/74/88 98/102/88
f 98/102/88 97/101/88 74/75/88
f 80/83/89 79/82/88 101/105/88
f 101/105/88 91/95/88 80/83/89
f 91/95/89 101/105/93 102/106/93
f 102/106/93 92/96/93 91/95/89
f 103/107/94 104/108/94 105/109/95
f 105/109/95 106/110/94 103/107/94
f 107/111/96 108/112/97 109/113/98
f 109/113/98 110/114/97 107/111/96
f 111/115/96 107/111/97 110/114/94
f 110/114/94 112/116/97 111/115/96
f 113/117/94 103/107/94 106/110/99
f 106/110/99 114/118/94 113/117/94
f 115/119/100 116/120/100 117/121/101
f 117/121/101 118/122/100 115/119/100
f 107/111/101 111/115/96 119/123/101
f 119/123/101 120/124/101 107/111/101
f 108/112/101 107/111/96 120/124/101
f 120/124/101 121/125/102 108/112/101
f 122/126/103 123/127/100 116/120/101
f 116/120/101 115/119/100 122/126/103
f 124/128/104 125/129/100 126/130/105
f 126/130/105 127/131/100 124/128/104
f 128/132/101 129/133/106 130/134/101
f 130/134/101 131/135/101 128/132/101
f 111/115/101 128/132/96 131/135/101
f 131/135/101 119/123/101 111/115/101
f 118/122/104 117/121/100 125/129/101
f 125/129/101 124/128/100 118/122/104
f 132/136/94 113/117/94 114/118/99
f 114/118/99 133/137/94 132/136/94
f 128/132/96 111/115/97 112/116/94
f 112/116/94 134/138/97 128/132/96
f 129/133/106 128/132/97 134/138/94
f 134/138/94 135/139/97 129/133/106
f 136/140/107 132/136/94 133/137/99
f 133/137/99 137/141/94 136/140/107
f 138/142/108 100/104/108 99/103/108
f 99/103/108 139/143/108 138/142/108
f 92/96/108 102/106/108 140/144/108
f 140/144/108 141/145/109 92/96/108
f 142/146/109 141/145/108 140/144/108
f 140/144/108 143/147/108 142/146/109
f 144/148/108 138/142/108 139/143/108
f 139/143/108 145/149/108 144/148/108
f 146/150/109 141/145/109 142/146/109
f 142/146/109 147/151/109 146/150/109
f 89/93/109 92/96/109 141/145/109
f 141/145/109 146/150/109 89/93/109
f 96/100/109 95/99/109 148/152/109
f 148/152/109 149/153/109 96/100/109
f 149/153/109 148/152/109 150/154/109
f 150/154/109 151/155/109 149/153/109
f 152/156/109 153/157/109 108/112/109
f 108/112/109 121/125/109 152/156/109
f 147/151/109 142/146/109 153/157/109
f 153/157/109 152/156/109 147/151/109
f 151/155/109 150/154/109 154/158/109
f 154/158/109 155/159/109 151/155/109
f 155/159/109 154/158/109 123/127/109
f 123/127/109 122/126/109 155/159/109
f 156/160/108 144/148/108 145/149/108
f 145/149/108 157/161/108 156/160/108
f 153/157/109 142/146/108 143/147/108
f 143/147/108 158/162/108 153/157/109
f 108/112/109 153/157/108 158/162/108
f 158/162/108 109/113/108 108/112/109
f 104/108/108 156/160/108 157/161/108
f 157/161/108 105/109/108 104/108/108
f 125/129/110 131/135/110 130/134/110
f 130/134/110 126/130/110 125/129/110
f 126/130/111 130/134/111 15/15/111
f 15/15/111 127/131/111 126/130/111
f 84/163/112 26/48/112 47/47/112
f 47/47/112 85/164/112 84/163/112
f 127/131/113 15/15/113 31/31/113
f 31/31/113 124/128/113 127/131/113
f 117/121/110 119/123/110 131/135/110
f 131/135/110 125/129/110 117/121/110
f 124/128/113 31/31/113 32/32/113
f 32/32/113 118/122/113 124/128/113
f 116/120/110 120/124/110 119/123/110
f 119/123/110 117/121/110 116/120/110
f 118/122/113 32/32/113 33/33/113
f 33/33/113 115/119/113 118/122/113
f 123/127/110 121/125/110 120/124/110
f 120/124/110 116/120/110 123/127/110
f 115/119/113 33/33/113 35/35/114
f 35/35/114 122/126/113 115/119/113
f 154/158/115 152/156/115 121/125/115
f 121/125/115 123/127/115 154/158/115
f 122/126/116 35/35/116 59/60/116
f 59/60/116 155/159/116 122/126/116
f 150/154/115 147/151/115 152/156/115
f 152/156/115 154/158/115 150/154/115
f 155/159/116 59/60/116 58/59/116
f 58/59/116 151/155/116 155/159/116
f 148/152/115 146/150/115 147/151/115
f 147/151/115 150/154/115 148/152/115
f 151/155/116 58/59/116 57/58/116
f 57/58/116 149/153/116 151/155/116
f 95/99/115 89/93/115 146/150/115
f 146/150/115 148/152/115 95/99/115
f 149/153/116 57/58/116 30/30/116
f 30/30/116 96/100/116 149/153/116
f 94/98/117 90/94/117 89/93/117
f 89/93/117 95/99/117 94/98/117
f 96/100/118 30/30/118 29/29/118
f 29/29/118 93/97/118 96/100/118
f 88/92/117 82/85/117 90/94/117
f 90/94/117 94/98/117 88/92/117
f 93/97/118 29/29/118 27/27/118
f 27/27/118 87/91/118 93/97/118
f 86/90/117 81/84/117 82/85/117
f 82/85/117 88/92/117 86/90/117
f 87/91/118 27/27/118 24/24/118
f 24/24/118 83/87/118 87/91/118
f 85/89/117 47/86/117 81/84/117
f 81/84/117 86/90/117 85/89/117
f 83/87/118 24/24/118 26/26/118
f 26/26/118 84/88/118 83/87/118
f 76/77/119 23/23/119 22/22/119
f 22/22/119 72/73/119 76/77/119
f 74/75/120 79/82/120 77/80/120
f 77/80/120 71/72/120 74/75/120
f 75/76/112 41/41/112 23/23/112
f 23/23/112 76/77/112 75/76/112
f 71/72/120 77/80/120 41/79/120
f 41/79/120 75/76/120 71/72/120
f 72/73/119 22/22/119 20/20/119
f 20/20/119 73/74/119 72/73/119
f 97/101/120 101/105/120 79/82/120
f 79/82/120 74/75/120 97/101/120
f 73/74/119 20/20/119 19/19/119
f 19/19/119 98/102/119 73/74/119
f 100/104/120 102/106/120 101/105/120
f 101/105/120 97/101/120 100/104/120
f 98/102/119 19/19/119 18/18/119
f 18/18/119 99/103/119 98/102/119
f 99/103/121 18/18/121 60/61/121
f 60/61/121 139/143/121 99/103/121
f 138/142/122 140/144/122 102/106/122
f 102/106/122 100/104/122 138/142/122
f 139/143/121 60/61/121 61/62/121
f 61/62/121 145/149/121 139/143/121
f 144/148/122 143/147/122 140/144/122
f 140/144/122 138/142/122 144/148/122
f 145/149/121 61/62/121 62/63/121
f 62/63/121 157/161/121 145/149/121
f 156/160/122 158/162/122 143/147/122
f 143/147/122 144/148/122 156/160/122
f 157/161/121 62/63/121 38/38/121
f 38/38/121 105/109/121 157/161/121
f 104/108/122 109/113/122 158/162/122
f 158/162/122 156/160/122 104/108/122
f 105/109/123 38/38/123 37/37/123
f 37/37/123 106/110/123 105/109/123
f 103/107/124 110/114/124 109/113/124
f 109/113/124 104/108/124 103/107/124
f 106/110/123 37/37/123 39/39/123
f 39/39/123 114/118/123 106/110/123
f 113/117/124 112/116/124 110/114/124
f 110/114/124 103/107/124 113/117/124
f 114/118/123 39/39/123 40/40/123
f 40/40/123 133/137/123 114/118/123
f 132/136/124 134/138/124 112/116/124
f 112/116/124 113/117/124 132/136/124
f 133/137/123 40/40/123 16/16/123
f 16/16/123 137/141/123 133/137/123
f 136/140/124 135/139/124 134/138/124
f 134/138/124 132/136/124 136/140/124
f 137/141/111 16/16/111 135/139/111
f 135/139/111 136/140/111 137/141/111
f 49/50/125 16/16/125 12/12/125
f 12/12/125 50/51/125 49/50/125
f 50/51/126 12/12/126 10/10/126
f 10/10/126 48/49/126 50/51/126
f 51/52/127 135/139/127 16/16/127
f 16/16/127 49/50/127 51/52/127
f 52/53/127 129/133/127 135/139/127
f 135/139/127 51/52/127 52/53/127
f 48/49/128 10/10/128 1/1/128
f 1/1/128 53/54/128 48/49/128
f 54/55/127 130/134/127 129/133/127
f 129/133/127 52/53/127 54/55/127
f 55/56/127 15/15/127 130/134/127
f 130/134/127 54/55/127 55/56/127
f 56/57/129 3/3/129 15/15/129
f 15/15/129 55/56/129 56/57/129
f 53/54/130 1/1/130 3/3/130
f 3/3/130 56/57/130 53/54/130
