# ProBuilder 5.0.6
# https://unity3d.com/unity/features/worldbuilding/probuilder
# 10/20/2022 10:49:59 AM

mtllib ./Ground_Objects_Export_for_Testing.mtl
o Ground Objects Export for Testing

g Ground Objects Export for Testing
v 333.1314 40.50027 275.1118
v 333.1314 42.47624 275.1118
v 320.1888 42.47624 275.1118
v 320.1888 40.50027 275.1118
v 333.1314 42.47624 330.8567
v 320.1888 42.47624 330.8567
v 333.1314 40.50027 330.8567
v 320.1888 40.50027 330.8567
v 412.0014 40.50027 275.1118
v 412.0014 42.47624 275.1118
v 399.0588 42.47624 275.1118
v 399.0588 40.50027 275.1118
v 412.0014 42.47624 330.8567
v 399.0588 42.47624 330.8567
v 412.0014 40.50027 330.8567
v 399.0588 40.50027 330.8567
v 381.6656 25.83475 348.9868
v 381.6657 28.86943 348.9868
v 381.6657 28.86943 336.4489
v 381.6656 25.83475 336.4489
v 351.4205 28.86943 348.9868
v 351.4205 28.86943 336.4489
v 351.4205 25.83475 348.9868
v 351.4205 25.83475 336.4489
v 413.3814 25.83475 289.0977
v 413.3814 28.86943 289.0977
v 400.4388 28.86943 289.0977
v 400.4388 25.83475 289.0977
v 413.3814 28.86943 319.3429
v 400.4388 28.86943 319.3429
v 413.3814 25.83475 319.3429
v 400.4388 25.83475 319.3429
v 331.4143 25.83475 288.4977
v 331.4144 28.86943 288.4977
v 318.4718 28.86943 288.4977
v 318.4717 25.83475 288.4977
v 331.4144 28.86943 318.7428
v 318.4718 28.86943 318.7428
v 331.4143 25.83475 318.7428
v 318.4717 25.83475 318.7428
v 376.5103 25.83475 312.3418
v 376.5103 28.86943 312.3418
v 376.5103 28.86943 294.2304
v 376.5103 25.83475 294.2304
v 356.5759 28.86943 312.3418
v 356.5759 28.86943 294.2304
v 356.5758 25.83475 312.3418
v 356.5758 25.83475 294.2304
v 384.5842 25.04529 274.6208
v 384.5842 35.54793 274.6208
v 384.5842 35.54793 261.6782
v 384.5842 25.04529 261.6782
v 348.036 35.54793 274.6208
v 348.036 35.54793 261.6782
v 348.036 25.04529 274.6208
v 348.036 25.04529 261.6782
v 413.035 17.14877 351.1729
v 413.035 26.20745 351.1729
v 413.035 26.20745 249.5894
v 413.035 17.14877 249.5894
v 320.778 26.20745 351.1729
v 320.778 26.20745 249.5894
v 320.778 17.14877 351.1729
v 320.778 17.14877 249.5894

vt -333.1315 40.50027
vt -333.1315 42.47624
vt -320.1889 42.47624
vt -320.1889 40.50027
vt -333.1314 275.1118
vt -333.1314 330.8567
vt -320.1888 330.8567
vt -320.1888 275.1118
vt 333.1314 42.47624
vt 333.1314 40.50027
vt 320.1888 40.50027
vt 320.1888 42.47624
vt 333.1314 330.8567
vt 333.1314 275.1118
vt 320.1888 275.1118
vt 320.1888 330.8567
vt 275.1117 40.50027
vt 275.1117 42.47624
vt 330.8566 42.47624
vt 330.8566 40.50027
vt -330.8566 40.50027
vt -330.8566 42.47624
vt -275.1117 42.47624
vt -275.1117 40.50027
vt -412.0015 40.50027
vt -412.0015 42.47624
vt -399.0588 42.47624
vt -399.0588 40.50027
vt -412.0014 275.1118
vt -412.0014 330.8567
vt -399.0588 330.8567
vt -399.0588 275.1118
vt 412.0015 42.47624
vt 412.0015 40.50027
vt 399.0588 40.50027
vt 399.0588 42.47624
vt 412.0014 330.8567
vt 412.0014 275.1118
vt 399.0588 275.1118
vt 399.0588 330.8567
vt 275.1121 40.50027
vt 275.1121 42.47624
vt -275.1121 42.47624
vt -275.1121 40.50027
vt -348.9876 25.83535
vt -348.9875 28.87002
vt -336.4496 28.87002
vt -336.4497 25.83535
vt -381.6656 348.9868
vt -351.4205 348.9868
vt -351.4205 336.4489
vt -381.6656 336.4489
vt 348.9871 28.86995
vt 348.9871 25.83527
vt 336.4492 25.83527
vt 336.4492 28.86995
vt -381.6657 25.83452
vt -381.6657 28.86919
vt -351.4205 28.86919
vt -351.4205 25.83452
vt 351.4205 25.83463
vt 351.4205 28.8693
vt 381.6657 28.8693
vt 381.6657 25.83463
vt -413.3815 25.83465
vt -413.3815 28.86932
vt -400.4388 28.86932
vt -400.4389 25.83465
vt -413.3814 289.0977
vt -413.3814 319.3429
vt -400.4388 319.3429
vt -400.4388 289.0977
vt 413.3813 28.86932
vt 413.3813 25.83464
vt 400.4387 25.83464
vt 400.4387 28.86932
vt 289.0976 25.83413
vt 289.0976 28.8688
vt 319.3428 28.8688
vt 319.3428 25.83413
vt -319.3428 25.83475
vt -319.3428 28.86943
vt -289.0976 28.86943
vt -289.0976 25.83475
vt -331.4143 25.83475
vt -331.4144 28.86943
vt -318.4718 28.86943
vt -318.4717 25.83475
vt -331.4144 288.4977
vt -331.4144 318.7428
vt -318.4718 318.7428
vt -318.4718 288.4977
vt 331.4144 28.86943
vt 331.4143 25.83475
vt 318.4717 25.83475
vt 318.4718 28.86943
vt 288.4979 25.83624
vt 288.4979 28.87091
vt 318.743 28.87091
vt 318.743 25.83624
vt -318.743 25.83625
vt -318.743 28.87092
vt -288.4979 28.87092
vt -288.4979 25.83625
vt -312.342 25.83528
vt -312.342 28.86995
vt -294.2306 28.86995
vt -294.2306 25.83528
vt -376.5103 312.3418
vt -356.5758 312.3418
vt -356.5758 294.2304
vt -376.5103 294.2304
vt 312.342 28.86998
vt 312.342 25.83531
vt 294.2306 25.83531
vt 294.2306 28.86998
vt -376.5104 25.83475
vt -376.5104 28.86943
vt -356.5759 28.86943
vt -356.5758 25.83475
vt 356.5758 25.83475
vt 356.5759 28.86943
vt 376.5104 28.86943
vt 376.5104 25.83475
vt -274.6208 25.04529
vt -274.6208 35.54793
vt -261.6781 35.54793
vt -261.6781 25.04529
vt -384.5842 274.6208
vt -348.0359 274.6208
vt -348.0359 261.6782
vt -384.5842 261.6782
vt 274.6213 35.54793
vt 274.6213 25.04529
vt 261.6787 25.04529
vt 261.6787 35.54793
vt -384.5843 25.04529
vt -384.5843 35.54793
vt -348.036 35.54793
vt -348.036 25.04529
vt 348.036 25.04529
vt 348.036 35.54793
vt 384.5843 35.54793
vt 384.5843 25.04529
vt -351.1725 17.14877
vt -351.1725 26.20745
vt -249.589 26.20745
vt -249.589 17.14877
vt -413.035 351.1729
vt -320.778 351.1729
vt -320.778 249.5894
vt -413.035 249.5894
vt 351.1731 26.20745
vt 351.1731 17.14877
vt 249.5896 17.14877
vt 249.5896 26.20745
vt -413.035 17.14877
vt -413.035 26.20745
vt -320.778 26.20745
vt -320.778 17.14877
vt 320.778 17.14877
vt 320.778 26.20745
vt 413.035 26.20745
vt 413.035 17.14877

vn 1.162929E-05 0 -55.74488
vn 0 1.975967 0
vn -1.162929E-05 0 55.74488
vn 0 -1.975967 0
vn -12.9426 0 -2.700036E-06
vn 12.9426 0 2.700036E-06

usemtl Builder_Object
f 4/4/1 3/3/1 2/2/1 1/1/1
f 3/8/2 6/7/2 5/6/2 2/5/2
f 6/12/3 8/11/3 7/10/3 5/9/3
f 8/16/4 4/15/4 1/14/4 7/13/4
f 8/20/5 6/19/5 3/18/5 4/17/5
f 1/24/6 2/23/6 5/22/6 7/21/6
f 12/28/1 11/27/1 10/26/1 9/25/1
f 11/32/2 14/31/2 13/30/2 10/29/2
f 14/36/3 16/35/3 15/34/3 13/33/3
f 16/40/4 12/39/4 9/38/4 15/37/4
f 16/20/5 14/19/5 11/42/5 12/41/5
f 9/44/6 10/43/6 13/22/6 15/21/6
f 52/128/6 51/127/6 50/126/6 49/125/6
f 51/132/2 54/131/2 53/130/2 50/129/2
f 54/136/5 56/135/5 55/134/5 53/133/5
f 56/140/1 54/139/1 51/138/1 52/137/1
f 49/144/3 50/143/3 53/142/3 55/141/3

usemtl Builder_Object
f 20/48/6 19/47/6 18/46/6 17/45/6
f 19/52/2 22/51/2 21/50/2 18/49/2
f 22/56/5 24/55/5 23/54/5 21/53/5
f 24/60/1 22/59/1 19/58/1 20/57/1
f 17/64/3 18/63/3 21/62/3 23/61/3
f 28/68/1 27/67/1 26/66/1 25/65/1
f 27/72/2 30/71/2 29/70/2 26/69/2
f 30/76/3 32/75/3 31/74/3 29/73/3
f 32/80/5 30/79/5 27/78/5 28/77/5
f 25/84/6 26/83/6 29/82/6 31/81/6
f 36/88/1 35/87/1 34/86/1 33/85/1
f 35/92/2 38/91/2 37/90/2 34/89/2
f 38/96/3 40/95/3 39/94/3 37/93/3
f 40/100/5 38/99/5 35/98/5 36/97/5
f 33/104/6 34/103/6 37/102/6 39/101/6
f 44/108/6 43/107/6 42/106/6 41/105/6
f 43/112/2 46/111/2 45/110/2 42/109/2
f 46/116/5 48/115/5 47/114/5 45/113/5
f 48/120/1 46/119/1 43/118/1 44/117/1
f 41/124/3 42/123/3 45/122/3 47/121/3

usemtl Builder_Object
f 60/148/6 59/147/6 58/146/6 57/145/6
f 59/152/2 62/151/2 61/150/2 58/149/2
f 62/156/5 64/155/5 63/154/5 61/153/5
f 64/160/1 62/159/1 59/158/1 60/157/1
f 57/164/3 58/163/3 61/162/3 63/161/3

