# ProBuilder 4.5.2
# https://unity3d.com/unity/features/worldbuilding/probuilder
# 8/7/2021 6:22:36 PM

mtllib ./Left_Tread.mtl
o Left Tread

g Left Tread
v 1.085388 -1.098663 1.006072
v 0.3714105 -1.098663 1.006072
v 1.085388 -0.8583642 1.006072
v 0.3714105 -0.8583642 1.006072
v 0.3714105 -1.098663 -1.066074
v 1.085388 -1.098663 -1.066074
v 0.3714105 -0.8583642 -1.066074
v 1.085388 -0.8583642 -1.066074
v 1.085388 -0.7608358 0.9085436
v 0.3714105 -0.7608358 0.9085436
v 1.085388 -0.7608358 -0.9685457
v 0.3714105 -0.7608358 -0.9685457
v 1.085388 -1.196192 -0.9685457
v 0.3714105 -1.196192 -0.9685457
v 1.085388 -1.196192 0.9085436
v 0.3714105 -1.196192 0.9085436
v 1.056292 -0.8086932 -1.0455
v 0.4005071 -0.8086932 -1.0455
v 1.056292 -0.7814102 -1.018217
v 0.4005071 -0.7814102 -1.018217
v 0.4005071 -1.148334 -1.0455
v 1.056292 -1.148334 -1.0455
v 0.4005071 -1.175617 -1.018217
v 1.056292 -1.175617 -1.018217
v 0.4005071 -0.8086932 0.9854976
v 1.056292 -0.8086932 0.9854976
v 0.4005071 -0.7814102 0.9582146
v 1.056292 -0.7814102 0.9582146
v 1.056292 -1.148334 0.9854976
v 0.4005071 -1.148334 0.9854976
v 1.056292 -1.175617 0.9582146
v 0.4005071 -1.175617 0.9582146
v 0.8984692 -1.080543 0.6510549
v 0.8984692 -1.028876 0.7029948
v 0.8984692 -0.9441174 0.7017823
v 0.8984692 -0.8876596 0.6510549
v 0.8984692 -0.8876597 -0.7110573
v 0.8984692 -0.9393269 -0.7629972
v 0.8984692 -1.024085 -0.7617847
v 0.8984692 -1.080543 -0.7110573
v 0.6177123 -1.117806 -0.6442053
v 0.6177123 -1.055398 -0.7066138
v 0.6177123 -0.90163 -0.7066138
v 0.6177123 -0.8392216 -0.6442053
v 0.6177123 -0.8392216 0.556944
v 0.6177123 -0.90163 0.6193525
v 0.6177123 -1.055398 0.6193525
v 0.6177123 -1.117806 0.556944
v 1.033454 -0.8475088 -0.8240186
v 1.034015 -0.9077792 -0.9082534
v 1.033454 -1.120694 -0.8240186
v 1.033454 -1.120694 0.7640162
v 1.033454 -0.8475088 0.7640162
v 1.034015 -0.9077792 0.8482512
v 1.034015 -1.060423 0.8482512
v 1.034015 -1.060423 -0.9082534
v 0.9881547 -0.8876596 0.7393935
v 0.9881547 -0.8876597 -0.7993958
v 0.9881547 -1.080543 -0.7993958
v 0.9881547 -1.080543 0.7393935
v 0.9881547 -1.028876 0.7980704
v 0.9881547 -0.9441174 0.7967007
v 0.9881547 -0.9393269 -0.8580726
v 0.9881547 -1.024085 -0.8567029
v 0.4645692 -1.150479 -0.7850809
v 0.4645692 -1.073432 -0.8621284
v 0.4645692 -0.8835956 -0.8621284
v 0.4645692 -0.8835956 0.7748671
v 0.4645692 -1.073432 0.7748671
v 0.4645692 -1.150479 0.6978196
v 0.4645692 -0.8065481 0.6978196
v 0.4645692 -0.8065481 -0.7850809
v 0.5064446 -1.117806 -0.6442053
v 0.5064446 -1.055398 -0.7066138
v 0.5064446 -0.90163 -0.7066138
v 0.5064446 -0.90163 0.6193525
v 0.5064446 -1.055398 0.6193525
v 0.5064446 -1.117806 0.556944
v 0.5064446 -0.8392216 0.556944
v 0.5064446 -0.8392216 -0.6442053

vt 0.06838834 0.5423368
vt -0.6455895 0.5423368
vt 0.06838834 0.7826359
vt -0.6455895 0.7826359
vt 0.6455895 0.5423368
vt -0.06838834 0.5423368
vt 0.6455895 0.7826359
vt -0.06838834 0.7826359
vt -0.06838834 0.5755436
vt 0.6455895 0.5755436
vt -0.06838834 -1.301546
vt 0.6455895 -1.301546
vt 0.06838834 -1.301546
vt -0.6455895 -1.301546
vt 0.06838834 0.5755436
vt -0.6455895 0.5755436
vt -0.03929175 -0.3862173
vt 0.6164929 -0.3862173
vt -0.03929175 -0.3476333
vt 0.6164929 -0.3476333
vt 0.6164929 1.323114
vt -0.03929175 1.323114
vt 0.6164929 1.28453
vt -0.03929175 1.28453
vt -0.6164929 0.1271443
vt 0.03929175 0.1271443
vt -0.6164929 0.1657283
vt 0.03929175 0.1657283
vt 0.03929175 0.8097528
vt -0.6164929 0.8097528
vt 0.03929175 0.7711688
vt -0.6164929 0.7711688
vt -0.5670214 0.4653828
vt -0.6524976 0.550859
vt -0.6524976 0.7741137
vt -0.5670214 0.8595899
vt 1.293023 0.8595899
vt 1.3785 0.7741137
vt 1.3785 0.550859
vt 1.293023 0.4653828
vt -1.301546 0.4448084
vt -1.399074 0.5423368
vt -1.399074 0.7826359
vt -1.301546 0.8801643
vt 0.5755436 0.8801643
vt 0.673072 0.7826359
vt 0.673072 0.5423368
vt 0.5755436 0.4448084
vt -0.3569889 -0.2854852
vt 0.3569889 -0.2854852
vt -0.3278923 -0.2317217
vt 0.3278923 -0.2317217
vt 0.4862083 -0.4097802
vt 0.4669164 -0.3763655
vt 0.4801822 -0.4706146
vt 0.4112193 -0.351167
vt 0.3569889 -0.7838007
vt -0.3569889 -0.7838007
vt 0.3278923 -0.8375643
vt -0.3278923 -0.8375643
vt -0.4669208 -0.3763624
vt -0.4862128 -0.409777
vt -0.4112236 -0.351164
vt -0.4801868 -0.4706114
vt 0.3569889 0.2854852
vt -0.3569889 0.2854852
vt 0.3278923 0.2317217
vt -0.3278923 0.2317217
vt -0.4862083 0.4097802
vt -0.4669164 0.3763655
vt -0.4801822 0.4706146
vt -0.4112193 0.351167
vt 0.4669208 0.3763624
vt 0.4862128 0.409777
vt 0.4112236 0.351164
vt 0.4801868 0.4706114
vt -0.3569889 0.7838007
vt 0.3569889 0.7838007
vt -0.3278923 0.8375643
vt 0.3278923 0.8375643
vt 1.289789 0.8278239
vt 1.385435 0.7284481
vt 1.137897 0.7097138
vt 1.220636 0.6625987
vt 1.301546 0.3779651
vt -0.5755436 0.3779651
vt 1.157019 0.5049822
vt -0.4310163 0.5049822
vt -0.5755436 0.8311911
vt 1.301546 0.8311911
vt -0.4310163 0.704174
vt 1.157019 0.704174
vt -0.6710861 0.7444127
vt -0.5760881 0.8444076
vt -0.5057337 0.6795239
vt -0.4235778 0.7274217
vt -0.577805 0.4452689
vt -0.6734503 0.5446447
vt -0.4259119 0.5633791
vt -0.5086514 0.610494
vt -0.6611858 0.5423368
vt -0.6611858 0.7826359
vt -0.4952143 0.6056251
vt -0.4952143 0.7193475
vt 1.351534 0.7826359
vt 1.351534 0.5423368
vt 1.185563 0.7193475
vt 1.185563 0.6056251
vt 1.378252 0.584146
vt 1.283254 0.4841512
vt 1.212899 0.6490349
vt 1.130744 0.6011371
vt 0.2546523 0.7693945
vt 0.2546523 -0.7693948
vt 0.3151842 0.7940172
vt 0.3151842 -0.7940176
vt -0.2620648 -0.7693948
vt -0.2620648 0.7693945
vt -0.3225967 -0.7940176
vt -0.3225967 0.7940172
vt -0.7873488 0.01733849
vt -0.8366562 0.07801199
vt -0.8325959 -0.02981098
vt -0.9036848 0.04520455
vt -0.784614 -0.05442445
vt -0.7836077 0.03033886
vt -0.8525934 -0.08597413
vt -0.8525934 0.06666091
vt -0.853471 -0.03233404
vt -0.8025975 0.02998356
vt -0.9203464 0.007775775
vt -0.8453097 0.07858445
vt 0.7873493 -0.02685397
vt 0.8366567 -0.08752729
vt 0.8325966 0.0202956
vt 0.9036853 -0.05471983
vt 0.7846141 0.04325008
vt 0.7836077 -0.04151342
vt 0.8525935 0.0747997
vt 0.8525935 -0.07783534
vt 0.853471 0.02220994
vt 0.8025976 -0.04010754
vt 0.9203465 -0.01789975
vt 0.84531 -0.08870836
vt -1.003888 -0.1957072
vt -1.094237 -0.09149297
vt -0.7988476 -0.1468612
vt -0.8702235 -0.06453199
vt -1.090735 -0.1201496
vt -1.090735 0.1201496
vt -0.8665202 -0.09491825
vt -0.8665202 0.09491813
vt 1.094414 0.1201496
vt 1.094414 -0.1201496
vt 0.8451467 0.09491813
vt 0.8451467 -0.09491825
vt 1.095699 -0.1078127
vt 1.004032 -0.2108697
vt 0.8465804 -0.08115109
vt 0.7741634 -0.162566
vt 1.004032 0.2108697
vt 1.095699 0.1078127
vt 0.7741634 0.1625661
vt 0.8465803 0.08115101
vt -0.4163756 -0.9385446
vt -0.4163756 0.9385446
vt -0.3126059 -0.7550799
vt -0.3126059 0.7278206
vt 0.4163756 0.9385446
vt 0.4163756 -0.9385446
vt 0.3126059 0.7278206
vt 0.3126059 -0.7550799
vt -1.094237 0.09149299
vt -1.003888 0.1957072
vt -0.8702235 0.06453189
vt -0.7988476 0.1468612
vt -0.7958981 -0.1855445
vt -0.8707961 -0.1064061
vt -0.6491305 -0.1519843
vt -0.7097979 -0.08788215
vt -0.8721055 -0.09491825
vt -0.8721055 0.09491813
vt -0.7110517 -0.07688379
vt -0.7110517 0.07688367
vt 0.8457838 0.09491813
vt 0.8457838 -0.09491825
vt 0.68473 0.07688367
vt 0.68473 -0.07688379
vt 0.8442974 -0.1078661
vt 0.7693994 -0.1870046
vt 0.6832991 -0.08934223
vt 0.6226317 -0.1534443
vt 0.7693994 0.1870046
vt 0.8442974 0.107866
vt 0.6226317 0.1534443
vt 0.6832991 0.08934209
vt -0.3137908 -0.7550799
vt -0.3137908 0.7278206
vt -0.2606767 -0.6142043
vt -0.2606767 0.5869451
vt 0.3137908 0.7278206
vt 0.3137908 -0.7550799
vt 0.2606767 0.5869451
vt 0.2606767 -0.6142043
vt -0.8707962 0.1064059
vt -0.7958981 0.1855445
vt -0.7097979 0.087882
vt -0.6491305 0.1519842
vt -0.2219548 0.3358141
vt -0.2219548 0.4240729
vt -0.1106871 0.3358141
vt -0.1106871 0.4240729
vt -0.2219548 -0.07688379
vt -0.2219548 0.07688367
vt -0.1106871 -0.07688379
vt -0.1106871 0.07688367
vt 0.2219548 0.07688367
vt 0.2219548 -0.07688379
vt 0.1106871 0.07688367
vt 0.1106871 -0.07688379
vt 0.2219548 0.4047977
vt 0.2219548 0.3165389
vt 0.1106871 0.4047977
vt 0.1106871 0.3165389
vt 0.2219548 -0.3165385
vt 0.2219548 -0.4047973
vt 0.1106871 -0.3165385
vt 0.1106871 -0.4047973
vt -0.2219548 -0.6142043
vt -0.2219548 0.5869451
vt -0.1106871 -0.6142043
vt -0.1106871 0.5869451
vt 0.2219548 0.5869451
vt 0.2219548 -0.6142043
vt 0.1106871 0.5869451
vt 0.1106871 -0.6142043
vt -0.2219548 -0.4240725
vt -0.2219548 -0.3358136
vt -0.1106871 -0.4240725
vt -0.1106871 -0.3358136
vt 0.2557599 -0.6968571
vt 0.221907 -0.7673302
vt 0.1880072 -0.5907593
vt 0.1541544 -0.655623
vt -0.2597553 -0.7693948
vt -0.2597553 0.7693945
vt -0.1700698 -0.6810563
vt -0.1700698 0.6810559
vt 0.2597553 0.7693945
vt 0.2597553 -0.7693948
vt 0.1700698 0.6810559
vt 0.1700698 -0.6810563
vt -0.779292 -0.1885029
vt -0.7376377 -0.1196805
vt -0.6487049 -0.1885029
vt -0.6118332 -0.1222647
vt -0.2630818 0.6921813
vt -0.2292289 0.7626545
vt -0.1953292 0.5860834
vt -0.1614763 0.6509473
vt -0.7806012 -0.0545641
vt -0.7796049 0.03019934
vt -0.6498998 -0.0545641
vt -0.6490178 0.03019814
vt 0.7806011 0.04338975
vt 0.7796047 -0.04137387
vt 0.6498997 0.04338975
vt 0.6490178 -0.04137267
vt 0.7792919 0.1793358
vt 0.7376377 0.1105136
vt 0.6487049 0.1793358
vt 0.6118333 0.1130978

vn 0 0 1
vn 0 0 -1
vn 0 1 0
vn 0 -1 0
vn 0 0.707106 -0.7071075
vn 0 -0.707106 -0.7071075
vn 0 0.707106 0.7071075
vn 0 -0.707106 0.7071075
vn 1 0 0
vn -1 0 0
vn 0 0.3826843 -0.9238792
vn 0.5773485 0.5773506 -0.5773518
vn 0 0.9238797 -0.3826829
vn -0.577352 0.5773487 -0.57735
vn 0 -0.3826843 -0.9238792
vn -0.5773485 -0.5773506 -0.5773518
vn 0 -0.9238797 -0.3826829
vn 0.577352 -0.5773487 -0.57735
vn 0 0.3826843 0.9238792
vn -0.5773485 0.5773506 0.5773518
vn 0 0.9238797 0.3826829
vn 0.577352 0.5773487 0.57735
vn 0 -0.3826843 0.9238792
vn 0.5773485 -0.5773506 0.5773518
vn 0 -0.9238797 0.3826829
vn -0.577352 -0.5773487 0.57735
vn 0.9530655 -0.2140867 0.2140866
vn 0.9431342 -0.2516802 0.2136417
vn 0.933203 -0.2892736 0.2131968
vn 0.8238916 0.5667474 0
vn 0.857796 -0.5139903 0
vn 0.9436883 -0.2339365 -0.2339363
vn 0.9461414 -0.2441519 -0.2111298
vn 0.9485946 -0.2543673 -0.1883232
vn 0.9485481 0.2238935 -0.2238933
vn 0.9363716 0.2657773 -0.2250928
vn 0.9241951 0.3076612 -0.2262923
vn 0.9508903 0 -0.3095281
vn 0.9508902 0 0.3095283
vn 0.9376908 0.2456991 0.2456989
vn 0.9401484 0.2571244 0.2220651
vn 0.942606 0.2685497 0.1984312
vn 0.6633004 -0.7483532 2.898729E-08
vn 0.6632999 0.7483538 0
vn 0.7155864 0.5242516 -0.4616238
vn 0.7418138 0.5213168 -0.4188231
vn 0.7680411 0.518382 -0.3760225
vn 0.7346813 -0.01096189 -0.6783239
vn 0.7409084 -0.005480944 -0.6714978
vn 0.7471356 0 -0.6646717
vn 0.8042578 -0.4233459 -0.4170705
vn 0.761994 -0.4928396 -0.4121093
vn 0.7197302 -0.5623334 -0.4071481
vn 0.7155876 -0.5242506 0.4616228
vn 0.7418144 -0.521316 0.4188231
vn 0.7680411 -0.5183814 0.3760234
vn 0.7346813 0.01096186 0.6783238
vn 0.7409084 0.005480932 0.6714978
vn 0.7471356 0 0.6646717
vn 0.8042573 0.4233463 0.4170709
vn 0.7619938 0.4928396 0.4121097
vn 0.7197303 0.5623329 0.4071486
vn -0.8669562 0.3524111 0.3524108
vn -0.9095986 0 0.4154881
vn -0.9275376 0 -0.3737298
vn -0.8894785 0.3231317 -0.3231315
vn -0.8894785 -0.3231316 -0.3231314
vn -0.4405171 -0.8977442 0
vn -0.4405171 0.8977442 0
vn -0.8669562 -0.352411 0.3524108
vn -0.9464163 0.2283597 0.2283593
vn -0.9656063 0 0.2600087
vn -0.9656063 0 -0.2600087
vn -0.9464163 0.2283597 -0.2283594
vn -0.9464164 -0.2283594 -0.2283594
vn -0.6151567 -0.7884049 0
vn -0.6151567 0.7884049 0
vn -0.9464164 -0.2283594 0.2283594
vn 0.5455362 -0.6289954 0.5538546
vn 0.5721598 -0.5984067 0.559346
vn 0.5987834 -0.5678179 0.5648374
vn 0.5962714 -0.571876 -0.5633988
vn 0.5936452 -0.5555026 -0.5817145
vn 0.591019 -0.5391292 -0.6000302
vn 0.5455368 0.6289951 -0.5538545
vn 0.5721604 0.5984063 -0.5593458
vn 0.5987839 0.5678176 -0.5648372
vn 0.7273813 -0.01108827 -0.686144
vn 0.7271025 -0.01045618 -0.6864489
vn 0.7268238 -0.009824105 -0.6867537
vn 0.7273808 0.01108825 0.6861444
vn 0.727102 0.01045617 0.6864493
vn 0.7268233 0.009824091 0.6867543
vn 0.5962709 0.5718762 0.5633991
vn 0.5936447 0.5555028 0.5817148
vn 0.5910186 0.5391294 0.6000305

usemtl Basic
f 37/37/9 40/40/9 38/38/9
f 33/33/9 40/40/9 37/37/9
f 33/33/9 37/37/9 36/36/9
f 33/33/9 36/36/9 35/35/9
f 35/35/9 34/34/9 33/33/9
f 40/40/9 39/39/9 38/38/9
f 43/43/10 42/42/10 41/41/10
f 48/48/10 47/47/10 46/46/10
f 46/46/10 45/45/10 48/48/10
f 45/45/10 44/44/10 48/48/10
f 44/44/10 41/41/10 48/48/10
f 43/43/10 41/41/10 44/44/10
f 4/4/1 2/2/1 1/1/1
f 1/1/1 3/3/1 4/4/1
f 8/8/2 6/6/2 5/5/2
f 5/5/2 7/7/2 8/8/2
f 12/12/3 10/10/3 9/9/3
f 9/9/3 11/11/3 12/12/3
f 16/16/4 14/14/4 13/13/4
f 13/13/4 15/15/4 16/16/4
f 19/19/5 17/17/5 18/18/5
f 18/18/5 20/20/5 19/19/5
f 23/23/6 21/21/6 22/22/6
f 22/22/6 24/24/6 23/23/6
f 27/27/7 25/25/7 26/26/7
f 26/26/7 28/28/7 27/27/7
f 31/31/8 29/29/8 30/30/8
f 30/30/8 32/32/8 31/31/8
f 17/51/11 8/49/11 7/50/11
f 7/50/11 18/52/11 17/51/11
f 8/55/12 17/53/12 19/54/12
f 19/54/12 11/56/12 8/55/12
f 20/59/13 12/57/13 11/58/13
f 11/58/13 19/60/13 20/59/13
f 12/63/14 20/61/14 18/62/14
f 18/62/14 7/64/14 12/63/14
f 21/67/15 5/65/15 6/66/15
f 6/66/15 22/68/15 21/67/15
f 5/71/16 21/69/16 23/70/16
f 23/70/16 14/72/16 5/71/16
f 24/59/17 13/57/17 14/58/17
f 14/58/17 23/60/17 24/59/17
f 13/75/18 24/73/18 22/74/18
f 22/74/18 6/76/18 13/75/18
f 25/51/19 4/49/19 3/50/19
f 3/50/19 26/52/19 25/51/19
f 4/55/20 25/53/20 27/54/20
f 27/54/20 10/56/20 4/55/20
f 28/79/21 9/77/21 10/78/21
f 10/78/21 27/80/21 28/79/21
f 9/63/22 28/61/22 26/62/22
f 26/62/22 3/64/22 9/63/22
f 29/67/23 1/65/23 2/66/23
f 2/66/23 30/68/23 29/67/23
f 1/71/24 29/69/24 31/70/24
f 31/70/24 15/72/24 1/71/24
f 32/79/25 16/77/25 15/78/25
f 15/78/25 31/80/25 32/79/25
f 16/75/26 32/73/26 30/74/26
f 30/74/26 2/76/26 16/75/26
f 50/84/29 8/82/28 11/81/27
f 11/81/27 49/83/28 50/84/29
f 52/88/30 15/86/30 13/85/30
f 13/85/30 51/87/30 52/88/30
f 49/92/31 11/90/31 9/89/31
f 9/89/31 53/91/31 49/92/31
f 53/96/34 9/94/33 3/93/32
f 3/93/32 54/95/33 53/96/34
f 55/100/37 1/98/36 15/97/35
f 15/97/35 52/99/36 55/100/37
f 54/104/38 3/102/38 1/101/38
f 1/101/38 55/103/38 54/104/38
f 56/108/39 6/106/39 8/105/39
f 8/105/39 50/107/39 56/108/39
f 51/112/42 13/110/41 6/109/40
f 6/109/40 56/111/41 51/112/42
f 53/115/43 57/113/43 58/114/43
f 58/114/43 49/116/43 53/115/43
f 51/119/44 59/117/44 60/118/44
f 60/118/44 52/120/44 51/119/44
f 52/123/46 60/121/45 61/122/46
f 61/122/46 55/124/47 52/123/46
f 55/127/49 61/125/48 62/126/49
f 62/126/49 54/128/50 55/127/49
f 54/131/52 62/129/51 57/130/52
f 57/130/52 53/132/53 54/131/52
f 49/135/55 58/133/54 63/134/55
f 63/134/55 50/136/56 49/135/55
f 50/139/58 63/137/57 64/138/58
f 64/138/58 56/140/59 50/139/58
f 56/143/61 64/141/60 59/142/61
f 59/142/61 51/144/62 56/143/61
f 66/148/63 5/146/63 14/145/63
f 14/145/63 65/147/63 66/148/63
f 67/152/64 7/150/64 5/149/64
f 5/149/64 66/151/64 67/152/64
f 69/156/65 2/154/65 4/153/65
f 4/153/65 68/155/65 69/156/65
f 70/160/66 16/158/66 2/157/66
f 2/157/66 69/159/66 70/160/66
f 68/164/67 4/162/67 10/161/67
f 10/161/67 71/163/67 68/164/67
f 71/168/68 10/166/68 12/165/68
f 12/165/68 72/167/68 71/168/68
f 65/172/69 14/170/69 16/169/69
f 16/169/69 70/171/69 65/172/69
f 72/176/70 12/174/70 7/173/70
f 7/173/70 67/175/70 72/176/70
f 74/180/71 66/178/71 65/177/71
f 65/177/71 73/179/71 74/180/71
f 75/184/72 67/182/72 66/181/72
f 66/181/72 74/183/72 75/184/72
f 77/188/73 69/186/73 68/185/73
f 68/185/73 76/187/73 77/188/73
f 78/192/74 70/190/74 69/189/74
f 69/189/74 77/191/74 78/192/74
f 76/196/75 68/194/75 71/193/75
f 71/193/75 79/195/75 76/196/75
f 79/200/76 71/198/76 72/197/76
f 72/197/76 80/199/76 79/200/76
f 73/204/77 65/202/77 70/201/77
f 70/201/77 78/203/77 73/204/77
f 80/208/78 72/206/78 67/205/78
f 67/205/78 75/207/78 80/208/78
f 42/212/7 74/210/7 73/209/7
f 73/209/7 41/211/7 42/212/7
f 43/216/1 75/214/1 74/213/1
f 74/213/1 42/215/1 43/216/1
f 47/220/2 77/218/2 76/217/2
f 76/217/2 46/219/2 47/220/2
f 48/224/5 78/222/5 77/221/5
f 77/221/5 47/223/5 48/224/5
f 46/228/6 76/226/6 79/225/6
f 79/225/6 45/227/6 46/228/6
f 45/232/4 79/230/4 80/229/4
f 80/229/4 44/231/4 45/232/4
f 41/236/3 73/234/3 78/233/3
f 78/233/3 48/235/3 41/236/3
f 44/240/8 80/238/8 75/237/8
f 75/237/8 43/239/8 44/240/8
f 38/244/81 63/242/80 58/241/79
f 58/241/79 37/243/80 38/244/81
f 33/248/3 60/246/3 59/245/3
f 59/245/3 40/247/3 33/248/3
f 37/252/4 58/250/4 57/249/4
f 57/249/4 36/251/4 37/252/4
f 36/256/84 57/254/83 62/253/82
f 62/253/82 35/255/83 36/256/84
f 34/260/87 61/258/86 60/257/85
f 60/257/85 33/259/86 34/260/87
f 35/264/90 62/262/89 61/261/88
f 61/261/88 34/263/89 35/264/90
f 39/268/93 64/266/92 63/265/91
f 63/265/91 38/267/92 39/268/93
f 40/272/96 59/270/95 64/269/94
f 64/269/94 39/271/95 40/272/96

