# File produced by Open Asset Import Library (http://www.assimp.sf.net)
# (assimp v3.1.128981410)

mtllib Rotar%20Disc%20Exported.mtl

# vertex positions
v -0.350890 -0.340930 0.350890
v 0.000000 -0.340930 -0.000000
v -0.496233 -0.340930 -0.000000
v 0.000000 -0.340930 0.496233
v 0.350890 -0.340930 0.350890
v 0.496233 -0.340930 -0.000000
v 0.350890 -0.340930 -0.350890
v 0.000000 -0.340930 -0.496233
v -0.350890 -0.340930 -0.350890
v 0.000000 -0.629590 -0.000000
v -0.334229 -0.629590 0.334229
v -0.472671 -0.629590 -0.000000
v -0.514789 -0.629590 0.063034
v -0.408582 -0.629590 0.319439
v -0.334229 -0.629590 -0.334229
v -0.514789 -0.629590 -0.063034
v -0.408582 -0.629590 -0.319439
v -0.544800 -0.434210 0.107949
v -0.506893 -0.351590 -0.000000
v -0.461563 -0.434210 0.308901
v -0.358428 -0.351590 0.358428
v -0.544800 -0.434210 -0.107949
v -0.461563 -0.434210 -0.308901
v -0.358428 -0.351590 -0.358428
v -0.308900 -0.434210 -0.461563
v -0.107948 -0.434210 -0.544800
v 0.000000 -0.351590 -0.506893
v 0.000000 -0.629590 -0.472671
v -0.063034 -0.629590 -0.514789
v -0.319439 -0.629590 -0.408582
v 0.107949 -0.434210 -0.544800
v 0.308901 -0.434210 -0.461563
v 0.358428 -0.351590 -0.358428
v 0.334229 -0.629590 -0.334229
v 0.063034 -0.629590 -0.514789
v 0.319439 -0.629590 -0.408582
v 0.461563 -0.434210 -0.308901
v 0.544800 -0.434210 -0.107949
v 0.506893 -0.351590 -0.000000
v 0.514789 -0.629590 -0.063034
v 0.472671 -0.629590 -0.000000
v 0.408582 -0.629590 -0.319439
v 0.461563 -0.434210 0.308901
v 0.358428 -0.351590 0.358428
v 0.544800 -0.434210 0.107948
v 0.334229 -0.629590 0.334229
v 0.514789 -0.629590 0.063034
v 0.408582 -0.629590 0.319439
v 0.308901 -0.434210 0.461563
v 0.107949 -0.434210 0.544800
v 0.000000 -0.351590 0.506893
v 0.319439 -0.629590 0.408582
v 0.063034 -0.629590 0.514789
v 0.000000 -0.629590 0.472671
v -0.107948 -0.434210 0.544800
v -0.308900 -0.434210 0.461563
v -0.063034 -0.629590 0.514789
v -0.319439 -0.629590 0.408582
v -0.544800 -0.575571 0.107949
v -0.461563 -0.575571 0.308901
v -0.308900 -0.575571 0.461563
v -0.107948 -0.575571 0.544800
v 0.107949 -0.575571 0.544800
v 0.308901 -0.575571 0.461563
v 0.461563 -0.575571 0.308901
v 0.544800 -0.575571 0.107948
v 0.544800 -0.575571 -0.107949
v 0.461563 -0.575571 -0.308901
v 0.308901 -0.575571 -0.461563
v 0.107949 -0.575571 -0.544800
v -0.107948 -0.575571 -0.544800
v -0.308900 -0.575571 -0.461563
v -0.461563 -0.575571 -0.308901
v -0.544800 -0.575571 -0.107949

# UV coordinates
vt 0.302773 0.989802
vt 0.216862 0.761848
vt 0.603074 0.891893
vt 0.055881 0.906081
vt 0.000000 0.651279
vt 0.130694 0.362877
vt 0.271174 0.495510
vt 0.369128 0.625380
vt 0.485509 0.736622
vt 0.604414 0.412603
vt 0.799422 0.477516
vt 0.702457 0.614949
vt 0.728737 0.625101
vt 0.808674 0.517330
vt 0.574272 0.618166
vt 0.680076 0.648702
vt 0.584803 0.646925
vt 0.731113 0.731573
vt 0.612697 0.869435
vt 0.999999 0.565337
vt 0.886227 0.592725
vt 0.985780 0.559850
vt 0.624355 0.780851
vt 0.554049 0.733775
vt 0.490813 0.732340
vt 0.490559 0.680713
vt 0.428217 0.624337
vt 0.374007 0.621116
vt 0.471077 0.536809
vt 0.471249 0.564718
vt 0.548033 0.626464
vt 0.377314 0.567689
vt 0.328577 0.498706
vt 0.276565 0.490902
vt 0.401576 0.425739
vt 0.443564 0.533590
vt 0.390681 0.451124
vt 0.287874 0.428322
vt 0.235502 0.354410
vt 0.150691 0.354275
vt 0.376750 0.317519
vt 0.412637 0.297920
vt 0.374914 0.412327
vt 0.455312 0.110308
vt 0.493571 0.000000
vt 0.497539 0.014729
vt 0.302524 0.251328
vt 0.552772 0.208791
vt 0.404913 0.271183
vt 0.513345 0.194721
vt 0.587560 0.095372
vt 0.770467 0.166168
vt 0.883507 0.158969
vt 0.874037 0.167485
vt 0.580525 0.190153
vt 0.727500 0.248399
vt 0.740154 0.284757
vt 0.864395 0.270597
vt 0.915239 0.461005
vt 0.774889 0.301336
vt 0.821105 0.451941
vt 0.750411 0.645641
vt 0.826769 0.552676
vt 0.850388 0.436701
vt 0.810111 0.305351
vt 0.727467 0.211980
vt 0.597776 0.163316
vt 0.477966 0.169859
vt 0.382572 0.253217
vt 0.333082 0.335027
vt 0.344418 0.408257
vt 0.374952 0.474220
vt 0.416661 0.537164
vt 0.464995 0.591228
vt 0.523762 0.640155
vt 0.587510 0.679573
vt 0.659059 0.689577

# vertex normals
vn 0.000000 1.000000 0.000000
vn 0.000000 -1.000000 0.000000
vn -0.678599 0.678598 0.281084
vn -0.678598 0.678598 -0.281085
vn -0.281084 0.678598 -0.678599
vn 0.281084 0.678598 -0.678598
vn 0.678599 0.678598 -0.281084
vn 0.678599 0.678598 0.281084
vn 0.281084 0.678598 0.678599
vn -0.281084 0.678598 0.678598
vn -0.908903 0.417008 0.000000
vn -0.642691 0.417008 -0.642691
vn 0.000000 0.417008 -0.908903
vn 0.642691 0.417008 -0.642691
vn 0.908903 0.417009 0.000000
vn 0.642692 0.417008 0.642691
vn -0.000000 0.417008 0.908903
vn -0.642691 0.417008 0.642692
vn -0.923880 -0.000000 0.382683
vn -0.382683 0.000000 0.923880
vn 0.382683 -0.000000 0.923880
vn 0.923880 -0.000000 0.382683
vn 0.923880 0.000000 -0.382683
vn 0.382683 0.000000 -0.923880
vn -0.382683 -0.000000 -0.923880
vn -0.923880 -0.000000 -0.382683
vn -1.000000 -0.000000 0.000000
vn -0.707107 -0.000000 -0.707107
vn 0.000000 0.000000 -1.000000
vn 0.707107 0.000000 -0.707107
vn 1.000000 0.000000 0.000000
vn 0.707107 -0.000000 0.707107
vn -0.000000 0.000000 1.000000
vn -0.707107 0.000000 0.707107
vn 0.000000 -0.485653 0.874152
vn 0.294255 -0.639338 0.710395
vn 0.618119 -0.485653 0.618118
vn 0.710395 -0.639338 0.294255
vn 0.874152 -0.485653 0.000000
vn 0.710395 -0.639338 -0.294255
vn 0.618119 -0.485653 -0.618119
vn 0.294255 -0.639338 -0.710395
vn 0.000000 -0.485653 -0.874152
vn -0.294255 -0.639338 -0.710395
vn -0.618119 -0.485652 -0.618119
vn -0.710395 -0.639338 -0.294255
vn -0.874152 -0.485653 0.000000
vn -0.710395 -0.639338 0.294255
vn -0.618119 -0.485653 0.618119
vn -0.294255 -0.639338 0.710395

# Mesh
g Rotar
usemtl Basic
f 1/1/1 2/2/1 3/3/1
f 4/4/1 2/2/1 1/1/1
f 5/5/1 2/2/1 4/4/1
f 6/6/1 2/2/1 5/5/1
f 7/7/1 2/2/1 6/6/1
f 8/8/1 2/2/1 7/7/1
f 9/9/1 2/2/1 8/8/1
f 3/3/1 2/2/1 9/9/1
f 10/10/2 11/11/2 12/12/2
f 12/12/2 11/11/2 13/13/2
f 11/11/2 14/14/2 13/13/2
f 12/12/2 15/15/2 10/10/2
f 16/16/2 15/15/2 12/12/2
f 17/17/2 15/15/2 16/16/2
f 18/18/3 3/3/3 19/19/3
f 18/18/3 1/20/3 3/3/3
f 20/21/3 1/20/3 18/18/3
f 21/22/3 1/20/3 20/21/3
f 19/19/4 3/3/4 22/23/4
f 3/3/4 23/24/4 22/23/4
f 23/24/4 9/9/4 24/25/4
f 23/24/4 3/3/4 9/9/4
f 25/26/5 24/25/5 9/9/5
f 26/27/5 25/26/5 9/9/5
f 26/27/5 9/9/5 8/8/5
f 27/28/5 26/27/5 8/8/5
f 10/10/2 15/15/2 28/29/2
f 28/29/2 15/15/2 29/30/2
f 29/30/2 15/15/2 30/31/2
f 31/32/6 27/28/6 8/8/6
f 7/7/6 31/32/6 8/8/6
f 7/7/6 32/33/6 31/32/6
f 33/34/6 32/33/6 7/7/6
f 28/29/2 34/35/2 10/10/2
f 34/35/2 28/29/2 35/36/2
f 35/36/2 36/37/2 34/35/2
f 37/38/7 33/34/7 7/7/7
f 38/39/7 37/38/7 7/7/7
f 7/7/7 6/6/7 38/39/7
f 6/6/7 39/40/7 38/39/7
f 40/41/2 41/42/2 34/35/2
f 42/43/2 40/41/2 34/35/2
f 34/35/2 41/42/2 10/10/2
f 43/44/8 5/45/8 44/46/8
f 45/47/8 5/45/8 43/44/8
f 6/6/8 5/45/8 45/47/8
f 6/6/8 45/47/8 39/40/8
f 46/48/2 47/49/2 48/50/2
f 47/49/2 46/48/2 41/42/2
f 41/42/2 46/48/2 10/10/2
f 5/45/9 49/51/9 44/46/9
f 50/52/9 49/51/9 5/45/9
f 4/53/9 50/52/9 5/45/9
f 4/53/9 51/54/9 50/52/9
f 52/55/2 53/56/2 46/48/2
f 46/48/2 53/56/2 54/57/2
f 10/10/2 46/48/2 54/57/2
f 4/53/10 55/58/10 51/54/10
f 1/20/10 55/58/10 4/53/10
f 1/20/10 56/59/10 55/58/10
f 1/20/10 21/22/10 56/59/10
f 54/57/2 57/60/2 11/11/2
f 10/10/2 54/57/2 11/11/2
f 11/11/2 57/60/2 58/61/2
f 13/13/2 16/16/2 12/12/2
f 19/19/11 22/23/11 18/18/11
f 25/26/12 23/24/12 24/25/12
f 15/15/2 17/17/2 30/31/2
f 31/32/13 26/27/13 27/28/13
f 28/29/2 29/30/2 35/36/2
f 37/38/14 32/33/14 33/34/14
f 34/35/2 36/37/2 42/43/2
f 45/47/15 38/39/15 39/40/15
f 41/42/2 40/41/2 47/49/2
f 49/51/16 43/44/16 44/46/16
f 46/48/2 48/50/2 52/55/2
f 55/58/17 50/52/17 51/54/17
f 54/57/2 53/56/2 57/60/2
f 20/21/18 56/59/18 21/22/18
f 11/11/2 58/61/2 14/14/2
f 20/21/19 18/18/19 59/62/19
f 59/62/19 60/63/19 20/21/19
f 55/58/20 56/59/20 61/64/20
f 61/64/20 62/65/20 55/58/20
f 49/51/21 50/52/21 63/66/21
f 63/66/21 64/67/21 49/51/21
f 45/47/22 43/44/22 65/68/22
f 65/68/22 66/69/22 45/47/22
f 37/38/23 38/39/23 67/70/23
f 67/70/23 68/71/23 37/38/23
f 31/32/24 32/33/24 69/72/24
f 69/72/24 70/73/24 31/32/24
f 25/26/25 26/27/25 71/74/25
f 71/74/25 72/75/25 25/26/25
f 22/23/26 23/24/26 73/76/26
f 73/76/26 74/77/26 22/23/26
f 74/77/27 59/62/27 18/18/27
f 18/18/27 22/23/27 74/77/27
f 23/24/28 25/26/28 72/75/28
f 72/75/28 73/76/28 23/24/28
f 26/27/29 31/32/29 70/73/29
f 70/73/29 71/74/29 26/27/29
f 32/33/30 37/38/30 68/71/30
f 68/71/30 69/72/30 32/33/30
f 38/39/31 45/47/31 66/69/31
f 66/69/31 67/70/31 38/39/31
f 43/44/32 49/51/32 64/67/32
f 64/67/32 65/68/32 43/44/32
f 50/52/33 55/58/33 62/65/33
f 62/65/33 63/66/33 50/52/33
f 56/59/34 20/21/34 60/63/34
f 60/63/34 61/64/34 56/59/34
f 53/56/35 63/66/35 62/65/35
f 62/65/35 57/60/35 53/56/35
f 52/55/36 64/67/36 63/66/36
f 63/66/36 53/56/36 52/55/36
f 48/50/37 65/68/37 64/67/37
f 64/67/37 52/55/37 48/50/37
f 47/49/38 66/69/38 65/68/38
f 65/68/38 48/50/38 47/49/38
f 40/41/39 67/70/39 66/69/39
f 66/69/39 47/49/39 40/41/39
f 42/43/40 68/71/40 67/70/40
f 67/70/40 40/41/40 42/43/40
f 36/37/41 69/72/41 68/71/41
f 68/71/41 42/43/41 36/37/41
f 35/36/42 70/73/42 69/72/42
f 69/72/42 36/37/42 35/36/42
f 29/30/43 71/74/43 70/73/43
f 70/73/43 35/36/43 29/30/43
f 30/31/44 72/75/44 71/74/44
f 71/74/44 29/30/44 30/31/44
f 17/17/45 73/76/45 72/75/45
f 72/75/45 30/31/45 17/17/45
f 16/16/46 74/77/46 73/76/46
f 73/76/46 17/17/46 16/16/46
f 13/13/47 59/62/47 74/77/47
f 74/77/47 16/16/47 13/13/47
f 14/14/48 60/63/48 59/62/48
f 59/62/48 13/13/48 14/14/48
f 58/61/49 61/64/49 60/63/49
f 60/63/49 14/14/49 58/61/49
f 57/60/50 62/65/50 61/64/50
f 61/64/50 58/61/50 57/60/50
