# File produced by Open Asset Import Library (http://www.assimp.sf.net)
# (assimp v3.1.128981410)

mtllib Right%20Shoulder%20Pad%20Exported.mtl

# vertex positions
v -0.590604 1.102168 0.218563
v -0.740790 1.045716 0.187172
v -0.740790 0.892284 0.187172
v -0.590604 0.948737 0.218563
v -1.006833 0.727261 0.067560
v -0.900501 0.746263 -0.270389
v -0.855352 0.661152 -0.270389
v -0.961684 0.642151 0.067560
v -0.629533 1.045716 -0.345128
v -0.479346 1.102168 -0.313737
v -0.479346 0.948737 -0.313737
v -0.629533 0.892284 -0.345128
v -0.260287 1.132756 -0.313716
v -0.371545 1.132756 0.218583
v -0.371545 0.979325 0.218583
v -0.260287 0.979325 -0.313716
v -0.881131 0.751502 0.187152
v -0.769873 0.751502 -0.345148
v -0.881131 0.904934 0.187152
v -0.769873 0.904934 -0.345148

# UV coordinates
vt 0.438979 0.525415
vt 0.340009 0.524406
vt 0.295901 0.406990
vt 0.412877 0.416787
vt 0.070014 0.490168
vt 0.090212 0.823326
vt 0.018695 0.842247
vt 0.000000 0.426458
vt 0.458947 0.898124
vt 0.609545 0.849712
vt 0.615499 0.970133
vt 0.385414 0.999999
vt 0.830608 0.693309
vt 0.572917 0.529673
vt 0.555454 0.439219
vt 0.838516 0.432601
vt 0.498192 0.033247
vt 0.665872 0.116966
vt 0.143179 0.417111
vt 0.298659 0.000000
vt 0.216856 0.489807
vt 0.148174 0.951865
vt 0.275567 0.905196
vt 0.838516 0.845386
vt 0.167869 0.054434

# vertex normals
vn -0.204592 0.000000 0.978847
vn -0.845137 -0.448323 -0.291120
vn 0.204592 0.000000 -0.978847
vn 0.978847 0.000000 0.204592
vn -0.337998 0.938492 -0.070646
vn 0.337998 -0.938492 0.070646
vn 0.700572 -0.698396 0.146429
vn -0.000146 0.000000 1.000000
vn 0.000146 0.000000 -1.000000
vn -0.700573 0.698396 -0.146429
vn 0.138231 -0.989979 0.028892
vn -0.138231 0.989979 -0.028892
vn 0.754324 -0.630315 0.183572
vn 0.792441 -0.569933 0.217287
vn 0.711502 -0.686767 0.148713
vn -0.662702 -0.166098 0.730231
vn -0.617354 -0.327490 0.715280
vn -0.689278 0.000000 0.724497
vn -0.502047 -0.087808 -0.860371
vn -0.323817 -0.171776 -0.930395
vn -0.658328 0.000000 -0.752731
vn -0.767274 0.615280 -0.180891
vn -0.734283 0.650393 -0.194464
vn -0.798341 0.578625 -0.166864

# Mesh
g Right
usemtl Basic
f 4/4/1 1/1/1 2/2/1
f 2/2/1 3/3/1 4/4/1
f 8/8/2 5/5/2 6/6/2
f 6/6/2 7/7/2 8/8/2
f 12/12/3 9/9/3 10/10/3
f 10/10/3 11/11/3 12/12/3
f 16/16/4 13/13/4 14/14/4
f 14/14/4 15/15/4 16/16/4
f 1/1/5 10/10/5 9/9/5
f 9/9/5 2/2/5 1/1/5
f 11/18/6 4/4/6 3/3/6
f 3/3/6 12/17/6 11/18/6
f 3/3/7 17/19/7 18/20/7
f 18/20/7 12/17/7 3/3/7
f 2/2/8 19/21/8 17/19/8
f 17/19/8 3/3/8 2/2/8
f 12/12/9 18/22/9 20/23/9
f 20/23/9 9/9/9 12/12/9
f 9/9/10 20/23/10 19/21/10
f 19/21/10 2/2/10 9/9/10
f 11/18/11 16/16/11 15/15/11
f 15/15/11 4/4/11 11/18/11
f 10/10/9 13/13/9 16/24/9
f 16/24/9 11/11/9 10/10/9
f 4/4/8 15/15/8 14/14/8
f 14/14/8 1/1/8 4/4/8
f 1/1/12 14/14/12 13/13/12
f 13/13/12 10/10/12 1/1/12
f 17/19/15 8/8/13 7/25/14
f 7/25/14 18/20/13 17/19/15
f 19/21/18 5/5/16 8/8/17
f 8/8/17 17/19/16 19/21/18
f 18/22/21 7/7/19 6/6/20
f 6/6/20 20/23/19 18/22/21
f 20/23/24 6/6/22 5/5/23
f 5/5/23 19/21/22 20/23/24
