# ProBuilder 5.0.6
# https://unity3d.com/unity/features/worldbuilding/probuilder
# 10/20/2022 11:14:52 AM

mtllib ./Cube_(24).mtl
o Cube (24)

g Cube (24)
v 276.6815 25.83476 289.0977
v 276.6815 28.86943 289.0977
v 263.7389 28.86943 289.0977
v 263.7389 25.83476 289.0977
v 276.6814 28.86943 319.3429
v 263.7388 28.86943 319.3429
v 276.6814 25.83476 319.3429
v 263.7388 25.83476 319.3429

vt 0 0
vt 0 1
vt 1 1
vt 1 0

vn 5.731054E-06 -5.253844E-05 -30.24517
vn 0 10.50264 0
vn -5.538195E-06 6.066294E-05 30.24517
vn -12.9426 -1.895723E-05 -3.109339E-05
vn 12.9426 1.570742E-05 3.109339E-05

usemtl Debug_DarkGrey_1
f 4/4/1 3/3/1 2/2/1 1/1/1
f 3/4/2 6/3/2 5/2/2 2/1/2
f 6/4/3 8/3/3 7/2/3 5/1/3
f 8/4/4 6/3/4 3/2/4 4/1/4
f 1/4/5 2/3/5 5/2/5 7/1/5

g Cube (20)
v 247.8843 25.04529 274.6208
v 247.8843 35.54793 274.6208
v 247.8843 35.54793 261.6783
v 247.8843 25.04529 261.6783
v 211.336 35.54793 274.6208
v 211.336 35.54793 261.6782
v 211.336 25.04529 274.6208
v 211.336 25.04529 261.6782

vt 0 0
vt 0 1
vt 1 1
vt 1 0

vn 36.54827 0 2.178446E-06
vn 0 10.50264 0
vn -36.54827 0 -2.178446E-06
vn 7.714389E-07 0 -12.9426
vn -7.714389E-07 0 12.9426

usemtl Debug_LightGrey
f 12/8/6 11/7/6 10/6/6 9/5/6
f 11/8/7 14/7/7 13/6/7 10/5/7
f 14/8/8 16/7/8 15/6/8 13/5/8
f 16/8/9 14/7/9 11/6/9 12/5/9
f 9/8/10 10/7/10 13/6/10 15/5/10

g Cube (34)
v 196.4314 40.50027 275.1118
v 196.4314 42.47624 275.1118
v 183.4888 42.47624 275.1118
v 183.4888 40.50027 275.1118
v 196.4314 42.47624 330.8567
v 183.4888 42.47624 330.8567
v 196.4314 40.50027 330.8567
v 183.4888 40.50027 330.8567

vt 0 0
vt 0 1
vt 1 1
vt 1 0

vn 1.162929E-05 0 -55.74488
vn 0 1.975967 0
vn -1.162929E-05 0 55.74488
vn 0 -1.975967 0
vn -12.9426 0 -2.700036E-06
vn 12.9426 0 2.700036E-06

usemtl Debug_LightGrey
f 20/12/11 19/11/11 18/10/11 17/9/11
f 19/12/12 22/11/12 21/10/12 18/9/12
f 22/12/13 24/11/13 23/10/13 21/9/13
f 24/12/14 20/11/14 17/10/14 23/9/14
f 24/12/15 22/11/15 19/10/15 20/9/15
f 17/12/16 18/11/16 21/10/16 23/9/16

g Cube (21)
v 276.335 17.14877 351.1729
v 276.335 26.20745 351.1729
v 276.335 26.20745 249.5894
v 276.335 17.14877 249.5894
v 184.078 26.20745 351.1729
v 184.078 26.20745 249.5894
v 184.078 17.14877 351.1729
v 184.078 17.14877 249.5894

vt 0 0
vt 0 1
vt 1 1
vt 1 0

vn 92.25698 0 5.498945E-06
vn 0 9.058685 0
vn -92.25698 0 -5.498945E-06
vn 6.054847E-06 0 -101.5835
vn -6.054847E-06 0 101.5835

usemtl Debug_Grey
f 28/16/17 27/15/17 26/14/17 25/13/17
f 27/16/18 30/15/18 29/14/18 26/13/18
f 30/16/19 32/15/19 31/14/19 29/13/19
f 32/16/20 30/15/20 27/14/20 28/13/20
f 25/16/21 26/15/21 29/14/21 31/13/21

g Cube (25)
v 194.7143 25.83476 288.4977
v 194.7144 28.86943 288.4977
v 181.7718 28.86943 288.4977
v 181.7717 25.83476 288.4977
v 194.7144 28.86943 318.7428
v 181.7718 28.86943 318.7428
v 194.7143 25.83476 318.7428
v 181.7717 25.83476 318.7428

vt 0 0
vt 0 1
vt 1 1
vt 1 0

vn 5.731054E-06 -9.207758E-06 -30.24517
vn 0 10.50264 0
vn -5.538195E-06 1.733226E-05 30.24517
vn -12.9426 0.0002480681 5.41235E-06
vn 12.9426 -0.0002518596 -4.961662E-06

usemtl Debug_DarkGrey_1
f 36/20/22 35/19/22 34/18/22 33/17/22
f 35/20/23 38/19/23 37/18/23 34/17/23
f 38/20/24 40/19/24 39/18/24 37/17/24
f 40/20/25 38/19/25 35/18/25 36/17/25
f 33/20/26 34/19/26 37/18/26 39/17/26

g Cube (23)
v 244.9657 25.83476 348.9868
v 244.9657 28.86943 348.9868
v 244.9657 28.86943 336.4489
v 244.9657 25.83476 336.4489
v 214.7205 28.86943 348.9868
v 214.7205 28.86943 336.4489
v 214.7205 25.83476 348.9868
v 214.7205 25.83476 336.4489

vt 0 0
vt 0 1
vt 1 1
vt 1 0

vn 30.24517 -2.654004E-05 1.615923E-06
vn 0 10.50264 0
vn -30.24517 3.466454E-05 -1.802753E-06
vn -1.506123E-06 -0.0001381165 -12.5379
vn 1.055435E-06 0.0001408247 12.5379

usemtl Debug_DarkGrey_1
f 44/24/27 43/23/27 42/22/27 41/21/27
f 43/24/28 46/23/28 45/22/28 42/21/28
f 46/24/29 48/23/29 47/22/29 45/21/29
f 48/24/30 46/23/30 43/22/30 44/21/30
f 41/24/31 42/23/31 45/22/31 47/21/31

g Cube (26)
v 239.8103 25.83476 312.3418
v 239.8103 28.86943 312.3418
v 239.8103 28.86943 294.2304
v 239.8103 25.83476 294.2304
v 219.8759 28.86943 312.3418
v 219.8759 28.86943 294.2304
v 219.8758 25.83476 312.3418
v 219.8758 25.83476 294.2304

vt 0 0
vt 0 1
vt 1 1
vt 1 0

vn 19.93449 -4.874701E-05 6.484262E-07
vn 0 10.50264 0
vn -19.93449 3.574781E-05 -6.484262E-07
vn 4.85429E-07 1.083268E-06 -18.11139
vn -4.85429E-07 -1.083267E-05 18.11139

usemtl Debug_DarkGrey_1
f 52/28/32 51/27/32 50/26/32 49/25/32
f 51/28/33 54/27/33 53/26/33 50/25/33
f 54/28/34 56/27/34 55/26/34 53/25/34
f 56/28/35 54/27/35 51/26/35 52/25/35
f 49/28/36 50/27/36 53/26/36 55/25/36

g Cube (33)
v 275.3015 40.50027 275.1118
v 275.3015 42.47624 275.1118
v 262.3589 42.47624 275.1118
v 262.3589 40.50027 275.1118
v 275.3014 42.47624 330.8567
v 262.3588 42.47624 330.8567
v 275.3014 40.50027 330.8567
v 262.3588 40.50027 330.8567

vt 0 0
vt 0 1
vt 1 1
vt 1 0

vn 1.162929E-05 0 -55.74488
vn 0 1.975967 0
vn -1.162929E-05 0 55.74488
vn 0 -1.975967 0
vn -12.9426 0 -2.700036E-06
vn 12.9426 0 2.700036E-06

usemtl Debug_LightGrey
f 60/32/37 59/31/37 58/30/37 57/29/37
f 59/32/38 62/31/38 61/30/38 58/29/38
f 62/32/39 64/31/39 63/30/39 61/29/39
f 64/32/40 60/31/40 57/30/40 63/29/40
f 64/32/41 62/31/41 59/30/41 60/29/41
f 57/32/42 58/31/42 61/30/42 63/29/42

